<?xml version="1.0" encoding="utf-8"?>
<!-- Generator: Adobe Illustrator 20.0.0, SVG Export Plug-In . SVG Version: 6.00 Build 0)  -->
<svg version="1.1" id="Ebene_1" xmlns="http://www.w3.org/2000/svg" xmlns:xlink="http://www.w3.org/1999/xlink" x="0px" y="0px"
	 viewBox="0 0 383 421.3" style="enable-background:new 0 0 383 421.3;" xml:space="preserve">
<style type="text/css">
	.st0{fill:#4AB6A1;}
	.st1{fill:#EF847A;}
	.st2{fill:#F4F4F4;}
	.st3{fill:#F4F4F4;stroke:#4AB6A1;stroke-width:1.8018;stroke-miterlimit:10;}
	.st4{fill:#663E7F;}
	.st5{fill:#09D0AD;}
	.st6{fill:#FFFFFF;}
	.st7{fill:#311A42;}
	.st8{fill:#E77AAD;}
	.st9{fill:#D4E1F2;}
	.st10{fill:#00A3A5;}
	.st11{fill:#FF75C3;}
	.st12{fill:#08D0AC;}
	.st13{fill:#663D7E;}
	.st14{fill:#471E5F;}
	.st15{fill:#DEBAD2;}
	.st16{fill:#D5E2F3;}
	.st17{fill:#5B5B5B;}
	.st18{fill-rule:evenodd;clip-rule:evenodd;fill:#FF75C3;}
	.st19{fill:none;stroke:#FF75C3;stroke-width:4;}
	.st20{fill:#3D1800;}
	.st21{fill:#BBD1D4;}
	.st22{fill:#F5D2CD;}
	.st23{fill:#5C5C5C;}
	.st24{fill:#C7CAC7;}
	.st25{fill:#232323;}
	.st26{fill:#FF8879;}
	.st27{fill:#AAAAAA;}
	.st28{fill:#FCEAEA;}
	.st29{fill:#F5D3CD;}
	.st30{fill:#FF8779;}
	.st31{fill:#D4E1F3;}
	.st32{fill:#EBEBEB;}
	.st33{fill:#FFE65D;}
	.st34{fill:#FFC4BD;}
</style>
<g>
	<path class="st6" d="M51.1,346.9c-4.5-20.2,3.1-43.7,12.8-61.2c0.7-6.1,1.8-12.5,3.3-19.2c-2.3,2.6-4.8,5.7-7.3,9.5
		c-12,17.5-24.2,46.6-18.8,70.9c3.5,15.7,12.9,33.5,53.2,36.1c-0.4-0.4-0.8-0.8-1.2-1.3C62.2,376.8,54.3,361,51.1,346.9L51.1,346.9z
		 M51.1,346.9"/>
	<path class="st6" d="M201.1,349.6h-17.7c-0.2,3.5-0.9,6.8-1.9,10H203C202,356.3,201.3,352.9,201.1,349.6L201.1,349.6z M201.1,349.6
		"/>
	<path class="st26" d="M181.5,359.6c-0.9,3-2.2,5.9-3.8,8.6h28.9c-1.6-2.8-2.8-5.7-3.7-8.6H181.5z M181.5,359.6"/>
	<path class="st6" d="M78.2,396.2l4.1,10h10l-3.5-8.5C85.2,397.4,81.6,396.9,78.2,396.2L78.2,396.2z M78.2,396.2"/>
	<path class="st6" d="M101.4,355c-25.2-43.8-9.1-90.3-5.9-98.4c-3.3-0.8-6.4-1.2-9.5-1.2c-0.1,0-22.2,51.5,5.4,99.6
		c9.5,16.5,22,25,26.5,27.8c2.9-0.3,5.7-0.6,8.4-1C120.9,378.2,109.9,369.9,101.4,355L101.4,355z M101.4,355"/>
	<path class="st6" d="M298.5,255.4c-3.1,0-6.4,0.4-9.6,1.2c2.6,8.5,16.1,59-5.4,97.7c-8.4,15.2-19.8,23.8-25.3,27.4
		c2.7,0.4,5.5,0.8,8.4,1.1c4.6-2.9,17.6-11.6,26.9-28.5C317.1,312,298.6,255.4,298.5,255.4L298.5,255.4z M298.5,255.4"/>
	<path class="st6" d="M324.6,276c-2.6-3.7-5-6.8-7.4-9.5c1.5,6.7,2.6,13.1,3.3,19.2c9.6,17.4,17.3,41,12.8,61.2
		c-3.1,14.1-11.1,29.9-41.9,34.9c-0.4,0.4-0.8,0.8-1.2,1.3c40.3-2.6,49.7-20.5,53.2-36.1C348.8,322.6,336.7,293.5,324.6,276
		L324.6,276z M324.6,276"/>
	<path class="st26" d="M306.2,396.2c-8,1.5-16.9,2.2-26.7,2.2c-27.6,0-46.7-6.1-59.2-15.2h-56.5c-0.4,0.3-20.8,15.2-59,15.2
		c-5.7,0-11-0.2-16-0.7l3.5,8.5h209.6L306.2,396.2z M306.2,396.2"/>
	<g>
		<path class="st29" d="M51.1,346.9c3.1,14.1,11.1,29.9,41.9,34.9c-4.9-5-10-11.3-14.6-19c-9.7-16.3-18.6-41.5-14.5-77
			C54.2,303.2,46.6,326.7,51.1,346.9L51.1,346.9z M51.1,346.9"/>
		<path class="st29" d="M101.4,355c8.5,14.9,19.5,23.2,24.9,26.7c26.5-4.3,42.1-17,42.1-35.2c0-34.9-39.7-81.8-72.9-89.9
			C92.3,264.7,76.2,311.3,101.4,355L101.4,355z M101.4,355"/>
		<path class="st29" d="M283.5,354.3c21.5-38.7,8-89.2,5.4-97.7c-33.3,8.2-72.8,55-72.8,89.9c0,18.2,15.7,30.9,42.1,35.2
			C263.7,378.1,275,369.5,283.5,354.3L283.5,354.3z M283.5,354.3"/>
		<path class="st29" d="M333.4,346.9c4.5-20.2-3.1-43.7-12.8-61.2c4.1,35.5-4.8,60.8-14.5,77c-4.6,7.8-9.8,14-14.6,19
			C322.3,376.8,330.2,361,333.4,346.9L333.4,346.9z M333.4,346.9"/>
	</g>
	<path class="st5" d="M298.2,240.4c-20.6,0.1-44.9,13.7-65.3,36.4c-16.4,18.3-27.3,39.1-30.8,57.7h-19.9
		c-3.4-18.7-14.4-39.5-30.8-57.7c-20.3-22.7-44.7-36.2-65.3-36.4l-14.7,3.1c-10.6,5.6-20,18-24.1,24c-14.4,21-27.5,53.8-21,82.7
		c4.4,19.5,15.4,33,33.4,40.7c0.3,0.5,10.6,25.8,10.6,25.8c1.2,2.8,3.9,4.6,7,4.6h229.7c3,0,5.8-1.8,7-4.6l10.8-25.8
		c17.9-7.7,28.9-21.1,33.3-40.6c6.5-29-6.6-61.7-21-82.7l0,0c-4.1-5.9-13.5-18.4-24.1-24L298.2,240.4z M288.9,256.7
		c3.3-0.8,6.5-1.2,9.6-1.2c0.1,0,18.6,56.5-5,98.9c-9.4,16.9-22.4,25.6-26.9,28.5c-2.9-0.3-5.7-0.6-8.4-1
		c-26.4-4.3-42.1-17-42.1-35.2C216.1,311.7,255.6,264.8,288.9,256.7L288.9,256.7z M181.5,359.6c1-3.2,1.6-6.6,1.9-10h17.7
		c0.2,3.4,0.8,6.7,1.9,10c0.9,2.9,2.1,5.8,3.7,8.6h-29C179.3,365.5,180.6,362.6,181.5,359.6L181.5,359.6z M85.9,255.4
		c3.1,0,6.3,0.4,9.5,1.2c33.3,8.1,72.9,55,72.9,89.9c0,18.2-15.7,30.9-42.1,35.2c-2.7,0.4-5.5,0.8-8.4,1c-4.5-2.8-17-11.2-26.5-27.8
		C63.7,306.9,85.9,255.4,85.9,255.4L85.9,255.4z M41.1,346.9c-5.4-24.3,6.7-53.4,18.8-70.9c2.5-3.7,5-6.8,7.3-9.5
		c-1.5,6.7-2.6,13.1-3.3,19.2c-4.1,35.5,4.8,60.8,14.5,77c4.6,7.8,9.8,14,14.6,19c0.4,0.4,0.8,0.8,1.2,1.3
		C54,380.4,44.6,362.6,41.1,346.9L41.1,346.9z M302.1,406.2H82.4l-4.1-9.9c3.4,0.6,6.9,1.1,10.6,1.5c5,0.5,10.4,0.7,16,0.7
		c38.2,0,58.6-14.9,59-15.2h56.5c12.5,9.1,31.6,15.2,59.2,15.2c9.8,0,18.7-0.7,26.7-2.2L302.1,406.2z M343.4,346.9
		c-3.5,15.7-12.9,33.5-53.2,36.1c0.4-0.4,0.8-0.8,1.2-1.3c4.9-5,10-11.3,14.6-19c9.7-16.3,18.6-41.5,14.5-77
		c-0.7-6.1-1.8-12.5-3.3-19.2c2.3,2.6,4.8,5.7,7.4,9.5C336.7,293.5,348.8,322.6,343.4,346.9L343.4,346.9z M343.4,346.9"/>
	<path class="st5" d="M132.4,47.5c-15.8,15.8-71.2,15.8-87,0L88.9,0L132.4,47.5z M132.4,47.5"/>
	<path class="st5" d="M121.2,54.2c-17.8,6.9-46.9,6.9-64.6,0L30.3,82.9c21.3,21.3,96,21.3,117.3,0L121.2,54.2z M121.2,54.2"/>
	<path class="st5" d="M133.3,91.6c-24.2,9.7-64.6,9.7-88.8,0l-29.4,32c32.1,32.1,119.1,28.4,147.5,0L133.3,91.6z M133.3,91.6"/>
	<path class="st5" d="M148.5,133.6c-31.3,16.1-86.7,17.7-119.3,0.2L0,165.6c32.3,32.3,145.5,32.3,177.8,0L148.5,133.6z M148.5,133.6
		"/>
	<path class="st5" d="M96.8,246.4v-56.6H81v56.6 M96.8,246.4"/>
	<path class="st33" d="M115.4,67.2l3.3,6.6L126,75l-5.3,5.2l1.3,7.3l-6.6-3.5l-6.6,3.5l1.3-7.3l-5.3-5.2l7.3-1.1L115.4,67.2z
		 M115.4,67.2"/>
	<path class="st33" d="M63.9,62.8l3.3,6.7l7.4,1.1l-5.3,5.2l1.3,7.3l-6.6-3.5l-6.6,3.5l1.3-7.3l-5.3-5.2l7.4-1.1L63.9,62.8z
		 M63.9,62.8"/>
	<path class="st33" d="M121.8,106.8l3.3,6.6l7.3,1.1l-5.3,5.2l1.3,7.3l-6.6-3.5l-6.6,3.5l1.3-7.3l-5.3-5.2l7.4-1.1L121.8,106.8z
		 M121.8,106.8"/>
	<path class="st33" d="M46.6,150.3l3.3,6.7l7.4,1.1l-5.3,5.2l1.3,7.3l-6.6-3.5l-6.6,3.5l1.3-7.3L36,158l7.4-1.1L46.6,150.3z
		 M46.6,150.3"/>
	<path class="st33" d="M82.2,23.7l3.3,6.7l7.3,1.1l-5.3,5.2l1.3,7.3l-6.6-3.5L75.6,44l1.3-7.3l-5.3-5.2l7.4-1.1L82.2,23.7z
		 M82.2,23.7"/>
	<path class="st26" d="M73.1,118.6c0,6.5-5.3,11.9-11.9,11.9s-11.9-5.3-11.9-11.9c0-6.5,5.3-11.9,11.9-11.9S73.1,112.1,73.1,118.6
		L73.1,118.6z"/>
	<path class="st26" d="M120.5,166.1c0,6.5-5.3,11.9-11.9,11.9c-6.5,0-11.9-5.3-11.9-11.9c0-6.6,5.3-11.9,11.9-11.9
		C115.2,154.2,120.5,159.5,120.5,166.1L120.5,166.1z"/>
	<path class="st5" d="M337.6,72.6c-15.8,15.8-71.2,15.8-87,0l43.5-47.5L337.6,72.6z M337.6,72.6"/>
	<path class="st5" d="M326.4,79.3c-17.8,6.9-46.9,6.9-64.6,0L235.5,108c21.3,21.3,96,21.3,117.3,0L326.4,79.3z M326.4,79.3"/>
	<path class="st5" d="M338.5,116.7c-24.2,9.7-64.6,9.7-88.8,0l-29.4,32c32.1,32.1,119.1,28.4,147.5,0L338.5,116.7z M338.5,116.7"/>
	<path class="st5" d="M353.7,158.7c-31.3,16.1-86.7,17.7-119.3,0.2l-29.1,31.8c32.3,32.3,145.5,32.3,177.8,0L353.7,158.7z
		 M353.7,158.7"/>
	<path class="st5" d="M302,246.4v-31.5h-15.8v31.5 M302,246.4"/>
	<path class="st33" d="M320.6,92.4l3.3,6.6l7.4,1.1l-5.3,5.2l1.3,7.3l-6.6-3.5l-6.6,3.5l1.3-7.3l-5.3-5.2l7.3-1.1L320.6,92.4z
		 M320.6,92.4"/>
	<path class="st33" d="M269.1,87.9l3.3,6.7l7.4,1.1l-5.3,5.2l1.3,7.3l-6.6-3.5l-6.6,3.5l1.3-7.3l-5.3-5.2l7.4-1.1L269.1,87.9z
		 M269.1,87.9"/>
	<path class="st33" d="M326.9,131.9l3.3,6.6l7.3,1.1l-5.3,5.2l1.3,7.3l-6.6-3.5l-6.6,3.5l1.3-7.3l-5.3-5.2l7.4-1.1L326.9,131.9z
		 M326.9,131.9"/>
	<path class="st33" d="M251.8,175.4l3.3,6.7l7.4,1.1l-5.3,5.2l1.3,7.3l-6.6-3.5l-6.6,3.5l1.3-7.3l-5.3-5.2l7.4-1.1L251.8,175.4z
		 M251.8,175.4"/>
	<path class="st33" d="M287.4,48.8l3.3,6.7l7.3,1.1l-5.3,5.2l1.3,7.3l-6.6-3.5l-6.6,3.5l1.3-7.3l-5.3-5.2l7.4-1.1L287.4,48.8z
		 M287.4,48.8"/>
	<path class="st26" d="M278.3,143.8c0,6.5-5.3,11.9-11.9,11.9c-6.5,0-11.9-5.3-11.9-11.9c0-6.5,5.3-11.9,11.9-11.9
		C273,131.9,278.3,137.2,278.3,143.8L278.3,143.8z"/>
	<path class="st26" d="M325.7,191.2c0,6.5-5.3,11.9-11.9,11.9c-6.5,0-11.9-5.3-11.9-11.9c0-6.6,5.3-11.9,11.9-11.9
		C320.4,179.3,325.7,184.7,325.7,191.2L325.7,191.2z"/>
</g>
</svg>
