<?xml version="1.0" encoding="utf-8"?>
<!-- Generator: Adobe Illustrator 20.0.0, SVG Export Plug-In . SVG Version: 6.00 Build 0)  -->
<svg version="1.1" id="Ebene_1" xmlns="http://www.w3.org/2000/svg" xmlns:xlink="http://www.w3.org/1999/xlink" x="0px" y="0px"
	 viewBox="0 0 497 544.5" style="enable-background:new 0 0 497 544.5;" xml:space="preserve">
<style type="text/css">
	.st0{fill:#4AB6A1;}
	.st1{fill:#EF847A;}
	.st2{fill:#F4F4F4;}
	.st3{fill:#F4F4F4;stroke:#4AB6A1;stroke-width:1.8018;stroke-miterlimit:10;}
	.st4{fill:#663E7F;}
	.st5{fill:#09D0AD;}
	.st6{fill:#FFFFFF;}
	.st7{fill:#311A42;}
	.st8{fill:#E77AAD;}
	.st9{fill:#D4E1F2;}
	.st10{fill:#00A3A5;}
	.st11{fill:#FF75C3;}
	.st12{fill:#08D0AC;}
	.st13{fill:#663D7E;}
	.st14{fill:#471E5F;}
	.st15{fill:#DEBAD2;}
	.st16{fill:#D5E2F3;}
	.st17{fill:#5B5B5B;}
	.st18{fill-rule:evenodd;clip-rule:evenodd;fill:#FF75C3;}
	.st19{fill:none;stroke:#FF75C3;stroke-width:4;}
	.st20{fill:#3D1800;}
	.st21{fill:#BBD1D4;}
	.st22{fill:#F5D2CD;}
	.st23{fill:#5C5C5C;}
	.st24{fill:#C7CAC7;}
	.st25{fill:#232323;}
	.st26{fill:#FF8879;}
	.st27{fill:#AAAAAA;}
	.st28{fill:#FCEAEA;}
	.st29{fill:#F5D3CD;}
	.st30{fill:#FF8779;}
	.st31{fill:#D4E1F3;}
	.st32{fill:#EBEBEB;}
	.st33{fill:#FFE65D;}
	.st34{fill:#FFC4BD;}
</style>
<g>
	<path class="st16" d="M285.6,338.8V58.4c0-32.3-26.2-58.4-58.4-58.4s-58.4,26.2-58.4,58.4v280.3c-32.7,20.2-54.1,56.9-52.7,98.4
		c1.9,57.3,47.9,104.2,105.1,107.2c64.1,3.4,117.2-47.6,117.2-111C338.4,393.4,317.3,358.4,285.6,338.8L285.6,338.8z M285.6,338.8"
		/>
	<path class="st15" d="M253.7,63.9v292.7l15.1,9.4c23.6,14.6,37.6,39.8,37.6,67.4c0,21.2-8.2,41.1-23.2,56c-15,15-34.9,23.2-56,23.2
		c-1.4,0-2.9,0-4.3-0.1c-40.6-2.1-73.5-35.7-74.9-76.4c-1-28.4,13.4-55.3,37.6-70.2l15.1-9.4V63.9H253.7z M253.7,63.9"/>
	<path class="st16" d="M338.4,433.3c0,8.9-1,17.5-3,25.7L168.7,292.5v-234c0-16.1,6.5-30.8,17.1-41.3C196.4,6.5,211,0,227.2,0
		c32.3,0,58.4,26.2,58.4,58.5v280.3C317.3,358.4,338.4,393.4,338.4,433.3L338.4,433.3z M338.4,433.3"/>
	<path class="st11" d="M200.7,63.9v260.5l105.7,105.7c-1.1-26.3-14.9-50.1-37.5-64.1l-15.1-9.4V63.9H200.7z M200.7,63.9"/>
	<g>
		<g>
			<path class="st16" d="M480.4,22.6c-0.8-1.3-3-1.3-3.8,0c-1.7,2.9-16.6,28.7-16.6,37.8c0,10,8.3,18.2,18.5,18.2
				c10.2,0,18.5-8.2,18.5-18.2C497,51.2,482.1,25.5,480.4,22.6z M478.5,74.3c-7.8,0-14.2-6.2-14.2-13.9c0-6,9-23.2,14.2-32.4
				c5.2,9.2,14.2,26.4,14.2,32.4C492.6,68.1,486.3,74.3,478.5,74.3z M486.1,58.3c-1.2,0-2.2,1-2.2,2.1c0,2.9-2.4,5.3-5.4,5.3
				c-1.2,0-2.2,1-2.2,2.1c0,1.2,1,2.1,2.2,2.1c5.4,0,9.8-4.3,9.8-9.6C488.3,59.2,487.3,58.3,486.1,58.3z"/>
		</g>
	</g>
	<g>
		<g>
			<path class="st16" d="M404,485.1c-0.8-1.3-3-1.3-3.8,0c-1.7,2.9-16.6,28.7-16.6,37.8c0,10,8.3,18.2,18.5,18.2
				c10.2,0,18.5-8.2,18.5-18.2C420.6,513.7,405.7,488,404,485.1z M402.1,536.8c-7.8,0-14.2-6.2-14.2-13.9c0-6,9-23.2,14.2-32.4
				c5.2,9.2,14.2,26.4,14.2,32.4C416.2,530.6,409.9,536.8,402.1,536.8z M409.7,520.8c-1.2,0-2.2,1-2.2,2.1c0,2.9-2.4,5.3-5.4,5.3
				c-1.2,0-2.2,1-2.2,2.1c0,1.2,1,2.1,2.2,2.1c5.4,0,9.8-4.3,9.8-9.6C411.9,521.7,410.9,520.8,409.7,520.8z"/>
		</g>
	</g>
	<g>
		<g>
			<path class="st16" d="M15.6,476.2c-0.6-1-2.3-1-2.9,0C11.4,478.4,0,498.1,0,505.1c0,7.7,6.3,13.9,14.2,13.9
				c7.8,0,14.1-6.2,14.1-13.9C28.3,498.1,16.9,478.4,15.6,476.2z M14.2,515.7c-6,0-10.8-4.8-10.8-10.6c0-4.6,6.9-17.7,10.8-24.8
				c4,7.1,10.8,20.2,10.8,24.8C25,511,20.1,515.7,14.2,515.7z M20,503.5c-0.9,0-1.7,0.7-1.7,1.6c0,2.3-1.9,4.1-4.2,4.1
				c-0.9,0-1.7,0.7-1.7,1.6c0,0.9,0.7,1.6,1.7,1.6c4.1,0,7.5-3.3,7.5-7.4C21.6,504.2,20.9,503.5,20,503.5z"/>
		</g>
	</g>
</g>
</svg>
