<?xml version="1.0" encoding="utf-8"?>
<!-- Generator: Adobe Illustrator 20.0.0, SVG Export Plug-In . SVG Version: 6.00 Build 0)  -->
<svg version="1.1" id="Ebene_1" xmlns="http://www.w3.org/2000/svg" xmlns:xlink="http://www.w3.org/1999/xlink" x="0px" y="0px"
	 viewBox="0 0 615.1 736.7" style="enable-background:new 0 0 615.1 736.7;" xml:space="preserve">
<style type="text/css">
	.st0{fill:#4AB6A1;}
	.st1{fill:#EF847A;}
	.st2{fill:#F4F4F4;}
	.st3{fill:#F4F4F4;stroke:#4AB6A1;stroke-width:1.8018;stroke-miterlimit:10;}
	.st4{fill:#663E7F;}
	.st5{fill:#09D0AD;}
	.st6{fill:#FFFFFF;}
	.st7{fill:#311A42;}
	.st8{fill:#E77AAD;}
	.st9{fill:#D4E1F2;}
	.st10{fill:#00A3A5;}
	.st11{fill:#FF75C3;}
	.st12{fill:#08D0AC;}
	.st13{fill:#663D7E;}
	.st14{fill:#471E5F;}
	.st15{fill:#DEBAD2;}
	.st16{fill:#D5E2F3;}
	.st17{fill:#5B5B5B;}
	.st18{fill-rule:evenodd;clip-rule:evenodd;fill:#FF75C3;}
	.st19{fill:none;stroke:#FF75C3;stroke-width:4;}
	.st20{fill:#3D1800;}
	.st21{fill:#BBD1D4;}
	.st22{fill:#F5D2CD;}
	.st23{fill:#5C5C5C;}
	.st24{fill:#C7CAC7;}
	.st25{fill:#232323;}
	.st26{fill:#FF8879;}
	.st27{fill:#AAAAAA;}
	.st28{fill:#FCEAEA;}
	.st29{fill:#F5D3CD;}
	.st30{fill:#FF8779;}
	.st31{fill:#D4E1F3;}
	.st32{fill:#EBEBEB;}
	.st33{fill:#FFE65D;}
	.st34{fill:#FFC4BD;}
</style>
<g>
	<path class="st28" d="M46.8,133.8L46.8,133.8c-4,6-2.5,14.1,3.3,18.3c5.9,4.2,14,3,18.4-2.6l0,0l11.3-15.7l-21.7-15.7L46.8,133.8z
		 M46.8,133.8"/>
	<path class="st11" d="M69.5,102.5L69.5,102.5l-11.3,15.7l21.7,15.7l11.3-15.7l0,0c4-6,2.6-14.1-3.3-18.3
		C82,95.6,73.9,96.8,69.5,102.5L69.5,102.5z M69.5,102.5"/>
</g>
<g>
	<path class="st28" d="M256.9,1.2L256.9,1.2c-6.5-3-14.3-0.4-17.6,6c-3.3,6.4-0.9,14.3,5.4,17.8l0,0l17.2,8.8l12.2-23.8L256.9,1.2z
		 M256.9,1.2"/>
	<path class="st11" d="M291.3,18.9L291.3,18.9l-17.2-8.8l-12.2,23.8l17.2,8.8l0,0c6.5,3,14.3,0.4,17.6-6
		C300,30.2,297.6,22.4,291.3,18.9L291.3,18.9z M291.3,18.9"/>
</g>
<g>
	<path class="st22" d="M464,68L464,68c5.1-5,5.3-13.3,0.4-18.6c-4.9-5.3-13.1-5.8-18.5-1.1l0,0l-14.2,13.1L449.7,81L464,68z M464,68
		"/>
	<path class="st30" d="M435.5,94.1L435.5,94.1L449.7,81l-18.1-19.7l-14.2,13.1l0,0c-5.1,5-5.3,13.2-0.5,18.6
		C421.8,98.3,430,98.8,435.5,94.1L435.5,94.1z M435.5,94.1"/>
</g>
<g>
	<path class="st22" d="M547.4,437.3L547.4,437.3c5.4,4.8,13.6,4.5,18.6-0.7c5-5.2,4.9-13.4-0.1-18.6l0,0l-14-13.4l-18.5,19.3
		L547.4,437.3z M547.4,437.3"/>
	<path class="st30" d="M519.4,410.5L519.4,410.5l13.9,13.4l18.5-19.3l-14-13.4l0,0c-5.4-4.8-13.6-4.5-18.6,0.7
		C514.4,397.1,514.5,405.4,519.4,410.5L519.4,410.5z M519.4,410.5"/>
</g>
<g>
	<path class="st22" d="M517.8,563.5L517.8,563.5c-5.2-4.9-13.4-4.8-18.6,0.3c-5.1,5.1-5.3,13.3-0.4,18.6l0,0l13.6,13.7l19-18.8
		L517.8,563.5z M517.8,563.5"/>
	<path class="st30" d="M545,591L545,591l-13.6-13.7l-19,18.8l13.6,13.7l0,0c5.2,4.9,13.4,4.8,18.6-0.3
		C549.7,604.4,549.9,596.2,545,591L545,591z M545,591"/>
</g>
<g>
	<path class="st22" d="M50.4,707L50.4,707c5-5.1,5.2-13.3,0.2-18.6c-4.9-5.3-13.1-5.6-18.6-0.9l0,0L18,700.7l18.3,19.5L50.4,707z
		 M50.4,707"/>
	<path class="st30" d="M22.2,733.4L22.2,733.4l14.1-13.2L18,700.7L3.9,713.9l0,0c-5,5.1-5.2,13.3-0.3,18.6
		C8.6,737.7,16.8,738.1,22.2,733.4L22.2,733.4z M22.2,733.4"/>
</g>
<g>
	<path class="st31" d="M577.5,169.4L577.5,169.4c-1.9,6.9,2,14.1,8.9,16.3c6.9,2.2,14.2-1.6,16.6-8.3l0,0l5.8-18.5l-25.6-8
		L577.5,169.4z M577.5,169.4"/>
	<path class="st12" d="M589.1,132.5L589.1,132.5l-5.8,18.5l25.6,8l5.8-18.5l0,0c1.9-6.9-2-14.1-8.9-16.3
		C598.8,122,591.4,125.7,589.1,132.5L589.1,132.5z M589.1,132.5"/>
</g>
<g>
	<path class="st31" d="M147.2,497.7L147.2,497.7c3.3-6.4,1-14.3-5.3-17.8c-6.3-3.5-14.2-1.4-18,4.7l0,0l-9.5,16.8l23.3,13.1
		L147.2,497.7z M147.2,497.7"/>
	<path class="st12" d="M128.2,531.3L128.2,531.3l9.5-16.8l-23.3-13.1l-9.5,16.8l0,0c-3.3,6.4-1,14.2,5.3,17.8
		C116.5,539.5,124.5,537.5,128.2,531.3L128.2,531.3z M128.2,531.3"/>
</g>
<g>
	<path class="st31" d="M51.2,501.4L51.2,501.4c7,1.6,14.1-2.5,16-9.5c1.9-7-2-14.2-8.9-16.3l0,0l-18.6-5.1l-7.1,25.8L51.2,501.4z
		 M51.2,501.4"/>
	<path class="st12" d="M13.9,491.1L13.9,491.1l18.6,5.2l7.1-25.8L21,465.3l0,0c-7-1.7-14.1,2.5-16,9.5
		C3.1,481.7,7.1,488.9,13.9,491.1L13.9,491.1z M13.9,491.1"/>
</g>
<g>
	<path class="st31" d="M558.2,563.1L558.2,563.1c-7.2,0-13.1,5.7-13.4,12.9c-0.3,7.2,5.3,13.3,12.4,13.8l0,0l19.3,0.7l1-26.8
		L558.2,563.1z M558.2,563.1"/>
	<path class="st12" d="M596.9,564.5L596.9,564.5l-19.3-0.7l-1,26.8l19.3,0.7l0,0c7.2,0,13.1-5.7,13.4-12.9
		C609.5,571.2,604,565.1,596.9,564.5L596.9,564.5z M596.9,564.5"/>
</g>
<g>
	<g>
		<path class="st16" d="M534.7,224.6L438.4,162c-74.1-48.1-195.3-48.1-269.3,0l-96.3,62.5c-74.1,48.1-74.1,126.8,0,174.8l96.3,62.5
			c74.1,48.1,195.3,48.1,269.3,0l96.3-62.5C608.8,351.3,608.8,272.6,534.7,224.6z"/>
	</g>
</g>
</svg>
