<?xml version="1.0" encoding="utf-8"?>
<!-- Generator: Adobe Illustrator 16.0.0, SVG Export Plug-In . SVG Version: 6.00 Build 0)  -->
<!DOCTYPE svg PUBLIC "-//W3C//DTD SVG 1.1//EN" "http://www.w3.org/Graphics/SVG/1.1/DTD/svg11.dtd">
<svg version="1.1" id="Ebene_1" xmlns="http://www.w3.org/2000/svg" xmlns:xlink="http://www.w3.org/1999/xlink" x="0px" y="0px"
	 viewBox="-155.904 -155.904 566.929 566.929"
	 enable-background="new -155.904 -155.904 566.929 566.929" xml:space="preserve">
<g>
	<g id="penisarrow">
		<path fill="#09D0AD" d="M255.121,127.56C255.121,57.419,197.701,0,127.56,0C57.419,0,0,57.419,0,127.56
			c0,28.709,8.538,55.242,25.529,76.502c1.004,1.089,1.004,2.177,1.004,3.266c0,3.18-2.093,5.272-5.273,5.272H10.63
			C4.269,212.6,0,216.869,0,223.23v21.26c0,6.361,4.269,10.631,10.63,10.631h85.04c6.361,0,10.63-4.27,10.63-10.631v-85.039
			c0-6.361-4.269-10.631-10.63-10.631H74.41c-6.361,0-10.63,4.27-10.63,10.631v8.537c0,1.004,0,3.181-2.093,4.269
			c-3.264,1.005-6.361,0-7.449-2.093c-7.45-12.807-11.718-27.705-11.718-42.52c0-46.789,38.251-85.04,85.04-85.04
			c46.789,0,85.04,38.251,85.04,85.04c0,32.979-20.507,62.274-49.132,76.084c12.973,5.273,21.594,20.172,21.511,37.33
			C226.411,220.216,255.121,177.446,255.121,127.56z"/>
		<path fill="#F5D2CD" d="M163.468,203.644c-2.679,1.34-5.441,2.679-8.287,3.684c-0.586,0.166-1.004,0.418-1.423,0.669
			c-9.542,2.26-16.656,10.714-16.656,20.925c0,3.432,0.837,6.529,2.26,9.459l1.089-0.754c1.59-1.088,3.766-0.753,4.854,0.838
			c1.088,1.59,0.754,3.766-0.836,4.854l-1.089,0.754c3.935,3.934,9.291,6.445,15.317,6.445c3.683,0,7.031-1.005,10.128-2.596
			c5.608-1.925,11.048-4.185,16.237-6.863C185.062,223.732,176.441,208.917,163.468,203.644z"/>
		<path fill="#5C5C5C" d="M145.304,238.38c-1.088-1.591-3.264-1.926-4.854-0.838l-1.089,0.754c1.005,2.092,2.344,4.018,3.935,5.691
			l1.088-0.754C145.974,242.146,146.392,239.97,145.304,238.38z"/>
	</g>
	<g>
		<g>
			<path d="M85.961,99.771V81.776h-8.454v17.828c0,2.009-1.255,3.181-3.097,3.181c-1.423,0-2.679-0.669-3.599-1.255l-3.432,6.445
				c2.176,1.674,5.105,2.26,7.784,2.26C81.608,110.234,85.961,106.886,85.961,99.771z M111.657,102.701H98.935v-3.599h12.388v-7.031
				H98.851v-3.264h12.723v-7.031H90.397v27.956h21.176v-7.031H111.657z M143.212,95.754c0-8.956-6.529-13.978-15.317-13.978h-12.472
				v27.956h12.555C136.683,109.732,143.212,104.626,143.212,95.754z M123.877,102.366V89.142h4.101c4.52,0,6.697,2.846,6.697,6.612
				c0,3.515-2.512,6.612-6.78,6.612H123.877z M146.225,109.732h21.177v-7.031h-12.723v-3.599h12.471v-7.031h-12.471v-3.264h12.723
				v-7.031h-21.177V109.732z M179.623,100.776h3.096l3.852,8.956h9.625l-5.105-9.877c2.26-1.088,5.021-3.683,5.021-8.454
				c0-5.273-3.516-9.625-10.044-9.625h-14.899v27.956h8.455V100.776z M179.623,88.807h5.189c1.422,0,2.762,0.92,2.762,2.427
				c0,1.59-1.34,2.511-2.762,2.511h-5.189V88.807z M138.943,135.511h-3.264v-16.07h-11.718l-10.128,16.991v6.528h13.392v4.521h8.454
				v-4.521h3.264V135.511z M127.225,135.511h-5.273l5.273-8.788V135.511z M141.12,143.379c0,2.427,2.093,4.521,4.521,4.521
				c2.427,0,4.52-2.094,4.52-4.521s-2.093-4.52-4.52-4.52C143.128,138.943,141.12,140.953,141.12,143.379z M86.044,171.335
				l-4.938-14.229H69.472v27.955h8.454v-17.66l6.278,17.66h3.767l6.277-17.66v17.66h8.454v-27.955H90.983L86.044,171.335z
				 M114.419,157.107l-10.295,27.955h9.207l1.088-3.599h10.714l1.088,3.599h9.207l-10.294-27.955H114.419z M116.595,174.433
				l3.181-9.877l3.181,9.877H116.595z M155.265,171.168l-9.709-14.062h-8.705v27.955h8.453V170.08l10.296,14.982h8.118v-27.955
				h-8.453V171.168z M186.653,171.168l-9.71-14.062h-8.704v27.955h8.454V170.08l10.295,14.982h8.119v-27.955h-8.454V171.168z"/>
		</g>
	</g>
</g>
</svg>
