<?xml version="1.0" encoding="utf-8"?>
<!-- Generator: Adobe Illustrator 16.0.0, SVG Export Plug-In . SVG Version: 6.00 Build 0)  -->
<!DOCTYPE svg PUBLIC "-//W3C//DTD SVG 1.1//EN" "http://www.w3.org/Graphics/SVG/1.1/DTD/svg11.dtd">
<svg version="1.1" id="Ebene_1" xmlns="http://www.w3.org/2000/svg" xmlns:xlink="http://www.w3.org/1999/xlink" x="0px" y="0px" viewBox="0 0 255.121 255.121" enable-background="new 0 0 255.121 255.121" xml:space="preserve">
<g>
	<path fill="#D5E2F3" d="M147.37,143.461V52.772c0-10.447-8.473-18.889-18.889-18.889c-10.415,0-18.889,8.474-18.889,18.889v90.657
		c-10.576,6.534-17.498,18.403-17.045,31.825c0.614,18.533,15.492,33.702,33.993,34.674c20.733,1.1,37.907-15.396,37.907-35.901
		C164.447,161.121,157.623,149.8,147.37,143.461L147.37,143.461z"/>
	<path fill="#DEBAD2" d="M137.053,54.552v94.667l4.884,3.039c7.633,4.723,12.161,12.873,12.161,21.8
		c0,6.856-2.652,13.292-7.504,18.112c-4.852,4.851-11.288,7.503-18.113,7.503c-0.454,0-0.939,0-1.392-0.032
		c-13.132-0.679-23.772-11.547-24.226-24.711c-0.323-9.186,4.334-17.886,12.161-22.705l4.884-3.039V54.552H137.053z"/>
	<path fill="#D5E2F3" d="M164.447,174.026c0,2.879-0.323,5.66-0.969,8.312l-53.919-53.853V52.805c0-5.207,2.103-9.962,5.531-13.358
		c3.429-3.461,8.151-5.563,13.391-5.563c10.447,0,18.89,8.474,18.89,18.921v90.656C157.623,149.8,164.447,161.121,164.447,174.026
		L164.447,174.026z"/>
	<path fill="#FF75C3" d="M119.91,54.552v84.252l34.188,34.187c-0.356-8.506-4.819-16.205-12.129-20.732l-4.884-3.039V54.552H119.91z
		"/>
	<g class="tropfen">
		<g>
			<path fill="#D5E2F3" d="M201.871-170.249c-0.26-0.42-0.971-0.42-1.229,0c-0.551,0.938-5.369,9.283-5.369,12.226
				c0,3.235,2.684,5.886,5.982,5.886s5.984-2.652,5.984-5.886C207.24-160.999,202.419-169.31,201.871-170.249z M201.255-153.527
				c-2.521,0-4.592-2.005-4.592-4.496c0-1.94,2.912-7.504,4.592-10.479c1.684,2.976,4.594,8.539,4.594,10.479
				C205.816-155.532,203.779-153.527,201.255-153.527z M203.714-158.702c-0.389,0-0.711,0.324-0.711,0.679
				c0,0.938-0.777,1.714-1.748,1.714c-0.387,0-0.711,0.323-0.711,0.679c0,0.388,0.324,0.68,0.711,0.68
				c1.748,0,3.17-1.391,3.17-3.105C204.425-158.41,204.101-158.702,203.714-158.702z"/>
		</g>
	</g>
	<g class="tropfen">
		<g>
			<path fill="#D5E2F3" d="M78.653-151.821c-0.26-0.42-0.971-0.42-1.229,0c-0.55,0.938-5.369,9.283-5.369,12.226
				c0,3.235,2.685,5.886,5.982,5.886c3.299,0,5.984-2.652,5.984-5.886C84.022-142.571,79.203-150.882,78.653-151.821z M78.038-135.1
				c-2.521,0-4.592-2.005-4.592-4.496c0-1.94,2.912-7.504,4.592-10.479c1.684,2.976,4.594,8.539,4.594,10.479
				C82.6-137.104,80.562-135.1,78.038-135.1z M80.497-140.274c-0.389,0-0.711,0.324-0.711,0.679c0,0.938-0.777,1.714-1.748,1.714
				c-0.387,0-0.711,0.323-0.711,0.679c0,0.388,0.324,0.68,0.711,0.68c1.748,0,3.17-1.391,3.17-3.105
				C81.208-139.982,80.885-140.274,80.497-140.274z"/>
		</g>
	</g>
	<g class="tropfen">
		<g>
			<path fill="#D5E2F3" d="M177.16-20.66c-0.259-0.421-0.971-0.421-1.229,0c-0.551,0.938-5.369,9.282-5.369,12.226
				c0,3.235,2.685,5.886,5.983,5.886s5.983-2.652,5.983-5.886C182.529-11.41,177.709-19.723,177.16-20.66z M176.545-3.939
				c-2.522,0-4.593-2.006-4.593-4.496c0-1.94,2.911-7.504,4.593-10.479c1.683,2.975,4.593,8.538,4.593,10.479
				C181.105-5.945,179.068-3.939,176.545-3.939z M179.003-9.115c-0.388,0-0.711,0.324-0.711,0.68c0,0.938-0.777,1.715-1.747,1.715
				c-0.388,0-0.711,0.323-0.711,0.678c0,0.389,0.323,0.68,0.711,0.68c1.747,0,3.17-1.391,3.17-3.105
				C179.715-8.823,179.392-9.115,179.003-9.115z"/>
		</g>
	</g>
	<g class="tropfen">
		<g>
			<path fill="#D5E2F3" d="M162.539-238.594c-0.258-0.421-0.969-0.421-1.228,0c-0.55,0.938-5.369,9.282-5.369,12.226
				c0,3.235,2.685,5.886,5.983,5.886s5.983-2.652,5.983-5.886C167.909-229.344,163.089-237.656,162.539-238.594z M161.925-221.873
				c-2.523,0-4.592-2.006-4.592-4.496c0-1.94,2.91-7.504,4.592-10.479c1.682,2.975,4.593,8.538,4.593,10.479
				C166.486-223.879,164.449-221.873,161.925-221.873z M164.383-227.049c-0.388,0-0.712,0.324-0.712,0.68
				c0,0.938-0.776,1.715-1.746,1.715c-0.388,0-0.711,0.323-0.711,0.678c0,0.389,0.324,0.68,0.711,0.68
				c1.746,0,3.17-1.391,3.17-3.105C165.095-226.757,164.771-227.049,164.383-227.049z"/>
		</g>
	</g>
	<g class="tropfen">
		<g>
			<path fill="#D5E2F3" d="M30.265-238.594c-0.258-0.421-0.97-0.421-1.228,0c-0.55,0.938-5.369,9.282-5.369,12.226
				c0,3.235,2.685,5.886,5.983,5.886s5.983-2.652,5.983-5.886C35.635-229.344,30.815-237.656,30.265-238.594z M29.651-221.873
				c-2.523,0-4.592-2.006-4.592-4.496c0-1.94,2.911-7.504,4.592-10.479c1.682,2.975,4.593,8.538,4.593,10.479
				C34.211-223.879,32.174-221.873,29.651-221.873z M32.109-227.049c-0.388,0-0.711,0.324-0.711,0.68
				c0,0.938-0.777,1.715-1.747,1.715c-0.388,0-0.711,0.323-0.711,0.678c0,0.389,0.324,0.68,0.711,0.68
				c1.747,0,3.17-1.391,3.17-3.105C32.821-226.757,32.498-227.049,32.109-227.049z"/>
		</g>
	</g>
	<g class="tropfen">
		<g>
			<path fill="#D5E2F3" d="M51.539-23.539c-0.194-0.324-0.744-0.324-0.938,0c-0.42,0.712-4.107,7.084-4.107,9.348
				c0,2.49,2.038,4.496,4.592,4.496c2.522,0,4.561-2.006,4.561-4.496C55.646-16.456,51.959-22.827,51.539-23.539z M51.085-10.764
				c-1.941,0-3.494-1.553-3.494-3.429c0-1.487,2.232-5.725,3.494-8.021c1.294,2.296,3.493,6.533,3.493,8.021
				C54.579-12.284,52.994-10.764,51.085-10.764z M52.962-14.709c-0.291,0-0.549,0.227-0.549,0.518c0,0.744-0.615,1.326-1.359,1.326
				c-0.291,0-0.55,0.227-0.55,0.518s0.226,0.517,0.55,0.517c1.326,0,2.426-1.067,2.426-2.394
				C53.479-14.482,53.252-14.709,52.962-14.709z"/>
		</g>
	</g>
	<g class="tropfen">
		<g>
			<path fill="#D5E2F3" d="M133.544-217.581c-0.193-0.324-0.744-0.324-0.938,0c-0.421,0.712-4.107,7.084-4.107,9.348
				c0,2.49,2.037,4.496,4.592,4.496c2.522,0,4.561-2.006,4.561-4.496C137.652-210.498,133.964-216.869,133.544-217.581z
				 M133.091-204.806c-1.941,0-3.494-1.553-3.494-3.429c0-1.487,2.232-5.725,3.494-8.021c1.294,2.296,3.493,6.533,3.493,8.021
				C136.584-206.326,135-204.806,133.091-204.806z M134.968-208.751c-0.291,0-0.55,0.227-0.55,0.518
				c0,0.744-0.614,1.326-1.358,1.326c-0.291,0-0.551,0.227-0.551,0.518s0.227,0.517,0.551,0.517c1.326,0,2.426-1.067,2.426-2.394
				C135.486-208.524,135.258-208.751,134.968-208.751z"/>
		</g>
	</g>
	<g class="tropfen">
		<g>
			<path fill="#D5E2F3" d="M182.998-119.215c-0.193-0.324-0.744-0.324-0.938,0c-0.42,0.712-4.107,7.084-4.107,9.348
				c0,2.49,2.037,4.496,4.592,4.496c2.523,0,4.561-2.006,4.561-4.496C187.106-112.132,183.418-118.503,182.998-119.215z
				 M182.544-106.44c-1.94,0-3.493-1.553-3.493-3.429c0-1.487,2.231-5.725,3.493-8.021c1.295,2.296,3.494,6.533,3.494,8.021
				C186.039-107.96,184.453-106.44,182.544-106.44z M184.421-110.385c-0.291,0-0.549,0.227-0.549,0.518
				c0,0.744-0.615,1.326-1.359,1.326c-0.291,0-0.55,0.227-0.55,0.518s0.226,0.517,0.55,0.517c1.326,0,2.426-1.067,2.426-2.394
				C184.939-110.159,184.712-110.385,184.421-110.385z"/>
		</g>
	</g>
	<g class="tropfen">
		<g>
			<path fill="#D5E2F3" d="M34.696-101.715c-0.193-0.324-0.744-0.324-0.938,0c-0.42,0.712-4.107,7.084-4.107,9.348
				c0,2.49,2.037,4.496,4.592,4.496c2.523,0,4.561-2.006,4.561-4.496C38.805-94.632,35.117-101.003,34.696-101.715z M34.243-88.94
				c-1.94,0-3.493-1.553-3.493-3.429c0-1.487,2.231-5.725,3.493-8.021c1.295,2.296,3.494,6.533,3.494,8.021
				C37.737-90.46,36.151-88.94,34.243-88.94z M36.12-92.885c-0.291,0-0.549,0.227-0.549,0.518c0,0.744-0.615,1.326-1.359,1.326
				c-0.291,0-0.55,0.227-0.55,0.518s0.226,0.517,0.55,0.517c1.326,0,2.426-1.067,2.426-2.394
				C36.638-92.659,36.411-92.885,36.12-92.885z"/>
		</g>
	</g>
</g>
</svg>
