<?xml version="1.0" encoding="utf-8"?>
<!-- Generator: Adobe Illustrator 20.0.0, SVG Export Plug-In . SVG Version: 6.00 Build 0)  -->
<svg version="1.1" id="Ebene_1" xmlns="http://www.w3.org/2000/svg" xmlns:xlink="http://www.w3.org/1999/xlink" x="0px" y="0px"
	 viewBox="0 0 240.9 427.8" style="enable-background:new 0 0 240.9 427.8;" xml:space="preserve">
<style type="text/css">
	.st0{fill:#4AB6A1;}
	.st1{fill:#EF847A;}
	.st2{fill:#F4F4F4;}
	.st3{fill:#F4F4F4;stroke:#4AB6A1;stroke-width:1.8018;stroke-miterlimit:10;}
	.st4{fill:#663E7F;}
	.st5{fill:#09D0AD;}
	.st6{fill:#FFFFFF;}
	.st7{fill:#311A42;}
	.st8{fill:#E77AAD;}
	.st9{fill:#D4E1F2;}
	.st10{fill:#00A3A5;}
	.st11{fill:#FF75C3;}
	.st12{fill:#08D0AC;}
	.st13{fill:#663D7E;}
	.st14{fill:#471E5F;}
	.st15{fill:#DEBAD2;}
	.st16{fill:#D5E2F3;}
	.st17{fill:#5B5B5B;}
	.st18{fill-rule:evenodd;clip-rule:evenodd;fill:#FF75C3;}
	.st19{fill:none;stroke:#FF75C3;stroke-width:4;}
	.st20{fill:#3D1800;}
	.st21{fill:#BBD1D4;}
	.st22{fill:#F5D2CD;}
	.st23{fill:#5C5C5C;}
	.st24{fill:#C7CAC7;}
	.st25{fill:#232323;}
	.st26{fill:#FF8879;}
	.st27{fill:#AAAAAA;}
	.st28{fill:#FCEAEA;}
	.st29{fill:#F5D3CD;}
	.st30{fill:#FF8779;}
	.st31{fill:#D4E1F3;}
	.st32{fill:#EBEBEB;}
	.st33{fill:#FFE65D;}
	.st34{fill:#FFC4BD;}
</style>
<g>
	<g>
		<path class="st26" d="M63.2,303.2H10.5l0-18.7l52.7,0L63.2,303.2z"/>
		<g>
			<path class="st29" d="M55.9,314.6H18.1l0-11.3l37.8,0L55.9,314.6z"/>
			<path class="st29" d="M73.8,161.3c0-6.3-1.9-12.1-5.1-17.1c-2.3-3.5-2.3-8.1,0-11.6c3.2-4.9,5-10.8,5.1-17.1
				c0-8.4-3.3-16-8.7-21.7c-1.2-1.3-2-3-2.4-4.7c-2.5-12-13.1-21-25.8-21c-12.7,0-23.3,9.1-25.8,21c-0.4,1.8-1.2,3.4-2.4,4.7
				C3.3,99.6,0,107.2,0,115.6c0,6.3,1.9,12.1,5.1,17.1c2.3,3.5,2.3,8.1,0,11.6C1.9,149.2,0,155,0,161.3c0,5.2,1.3,10.2,3.6,14.5
				c1.6,3,1.6,6.6,0,9.6c-2.3,4.4-3.6,9.3-3.6,14.5c0,6.3,1.9,12.1,5.1,17.1c2.3,3.5,2.3,8.1,0,11.6C1.9,233.5,0,239.3,0,245.6
				c0,7.9,3,15.2,7.9,20.8c1.7,2,2.7,4.5,2.7,7.1l0,11h52.7l0-11c0-2.6,1-5.1,2.7-7.1c4.9-5.6,7.9-12.8,7.9-20.8
				c0-6.3-1.9-12.1-5.1-17.1c-2.3-3.5-2.3-8.1,0-11.6c3.2-4.9,5.1-10.8,5.1-17.1c0-5.2-1.3-10.2-3.6-14.5c-1.6-3-1.6-6.6,0-9.6
				C72.5,171.5,73.8,166.5,73.8,161.3"/>
		</g>
		<g>
			<path class="st28" d="M41.5,98.8c-0.7,0.7-1.6,1.1-2.7,1.1c-5.2,0-10.1,3.3-12.2,8.1c-0.8,1.9-3,2.8-5,2c-1.9-0.8-2.8-3-2-4.9
				c3.3-7.7,10.8-12.6,19.1-12.6c2.1,0,3.8,1.7,3.8,3.8C42.6,97.1,42.1,98.1,41.5,98.8"/>
			<path class="st28" d="M24.5,152c-0.7,0.7-1.6,1.1-2.7,1.1c-2.1,0-3.8-1.7-3.8-3.8V123c0-2.1,1.7-3.8,3.8-3.8
				c2.1,0,3.8,1.7,3.8,3.8l0,26.2C25.6,150.3,25.2,151.3,24.5,152"/>
		</g>
	</g>
	<g id="dildo_lang_6_">
		<path id="Form_585_6_" class="st12" d="M116.3,0c-17.7,0.1-32,14.4-32.1,32.1l0.1,239.1h64.1l-0.1-239.2
			C148.3,14.4,133.9,0,116.3,0"/>
		<rect id="Rechteck_586_6_" x="81" y="271.3" class="st13" width="70.6" height="43.3"/>
		<rect id="Rechteck_588_6_" x="92.2" y="279.3" class="st14" width="3.2" height="25.7"/>
		<rect id="Rechteck_588_Kopie_6_" x="106.6" y="279.3" class="st14" width="3.2" height="25.7"/>
		<rect id="Rechteck_588_Kopie_2_6_" x="121.1" y="279.3" class="st14" width="3.2" height="25.7"/>
		<rect id="Rechteck_588_Kopie_3_6_" x="135.5" y="279.3" class="st14" width="3.2" height="25.7"/>
		<circle class="st6" cx="105" cy="22.5" r="8"/>
	</g>
	<path class="st13" d="M239.9,336c-1.7-3.7-5.8-6.3-10.6-6.7c-3.4-0.3-6.8,0.4-9.9,1.2l-0.6-0.5l-1.7-1.5l-2.5-2.1
		c-1.1-0.9-2.7-0.8-3.6,0.3l-4.7,5.6c-5.4-1.7-10.8-0.6-13.9,3.1c-4.6,5.5-2.6,14.6,4.3,20.5c7,5.8,16.3,6.2,20.9,0.7
		c3.2-3.8,3.2-9.5,0.5-14.5l4.6-5.5c0.6-0.8,0.7-1.8,0.4-2.6c2-0.4,4-0.7,6-0.5c3.3,0.3,6.1,2,7.2,4.3c0.6,1.4,0.8,3.2,0.5,5.6
		c-1,9.5-6.8,18.5-15,23.5c-3.6,2.2-7.6,3.6-11.8,5.1l-2.4,0.9c-17.5,6.4-29.2,14.7-36,25.4c-3.1,5-4.7,9.8-4.6,14.4
		c0.1,5.8,3,11.1,7.5,13.6c1.8,1,3.9,1.5,5.9,1.5c2.9,0,5.7-1,7.7-2.9l0.2,0.2l2.5,2.1c1.1,0.9,2.7,0.8,3.6-0.3l4.7-5.6
		c5.4,1.7,10.8,0.6,13.9-3.1c4.6-5.5,2.6-14.6-4.3-20.5c-7-5.8-16.3-6.2-20.9-0.7c-3.2,3.8-3.2,9.5-0.5,14.5l-4.6,5.5
		c-0.9,1.1-0.8,2.7,0.3,3.6l1.8,1.5c-2.2,1.7-5.7,2-8.4,0.4c-3.2-1.8-5.3-5.8-5.4-10.1c-0.1-3.8,1.3-7.8,3.9-12.1
		c6.2-9.9,17.3-17.6,33.9-23.7l2.4-0.9c4.2-1.5,8.6-3.1,12.6-5.5c9.3-5.6,15.8-15.8,16.9-26.6C241,341.8,241.2,338.8,239.9,336z
		 M213.7,353.5c-3.2,3.9-9.8,3.6-14.7-0.5c-4.9-4.1-6.3-10.6-3-14.4c3.2-3.9,9.8-3.6,14.7,0.5C215.6,343.2,216.9,349.6,213.7,353.5z
		 M215.9,335c-0.4,0.4-0.9,0.6-1.4,0.5c0,0-0.1,0.1-0.1,0.1c-0.6,0.7-1.3,1-1.6,0.7c0,0,0,0,0,0c0,0,0,0,0,0
		c-0.3-0.3-0.2-1.1,0.4-1.7c0,0,0.1-0.1,0.1-0.1c-0.2-0.5-0.1-1.1,0.3-1.5c0.6-0.7,1.5-0.8,2.2-0.2c0.2,0.1,0.3,0.3,0.4,0.5
		c0,0,0,0,0,0c0,0,0,0,0,0C216.4,333.9,216.4,334.5,215.9,335z M191.4,400.2c3.2-3.9,9.8-3.6,14.7,0.5c4.9,4.1,6.3,10.6,3,14.4
		c-3.2,3.9-9.8,3.6-14.7-0.5C189.6,410.5,188.2,404,191.4,400.2z M189.2,418.6c0.4-0.4,0.9-0.6,1.4-0.5c0,0,0.1-0.1,0.1-0.1
		c0.6-0.7,1.3-1,1.6-0.7l0,0c0,0,0,0,0,0c0.3,0.3,0.2,1.1-0.4,1.7c0,0-0.1,0.1-0.1,0.1c0.2,0.5,0.1,1.1-0.3,1.5
		c-0.6,0.7-1.5,0.8-2.2,0.2c-0.2-0.1-0.3-0.3-0.4-0.5c0,0,0,0,0,0c0,0,0,0,0,0C188.7,419.8,188.8,419.1,189.2,418.6z"/>
</g>
</svg>
