<?xml version="1.0" encoding="utf-8"?>
<!-- Generator: Adobe Illustrator 16.0.0, SVG Export Plug-In . SVG Version: 6.00 Build 0)  -->
<!DOCTYPE svg PUBLIC "-//W3C//DTD SVG 1.1//EN" "http://www.w3.org/Graphics/SVG/1.1/DTD/svg11.dtd">
<svg version="1.1" id="Ebene_1" xmlns="http://www.w3.org/2000/svg" xmlns:xlink="http://www.w3.org/1999/xlink" x="0px" y="0px"
	 viewBox="-85.038 -70.865 425.197 396.851"
	 enable-background="new -85.038 -70.865 425.197 396.851" xml:space="preserve">
<g>
	<path fill="#AAAAAA" d="M146.743,17.646C146.743,7.969,138.887,0,129.097,0c-9.677,0-17.646,7.855-17.646,17.646
		c0,6.603,3.643,12.181,8.879,15.255v19.922h17.304V32.787C143.213,29.827,146.743,24.134,146.743,17.646L146.743,17.646z
		 M104.507,160.859L26.07,239.296c-3.643,3.643-3.643,9.449,0,13.092s9.449,3.643,13.092,0l78.438-78.438
		c3.643-3.643,3.643-9.449,0-13.092C114.07,157.216,108.15,157.216,104.507,160.859L104.507,160.859z M232.238,239.296
		L153.8,160.859c-3.643-3.643-9.449-3.643-13.092,0s-3.643,9.449,0,13.092l78.438,78.438c3.643,3.643,9.449,3.643,13.092,0
		S235.88,242.939,232.238,239.296L232.238,239.296z"/>
	<path fill="#5B5B5B" d="M129.21,43.829c58.174,0,105.531,48.611,105.531,106.329c0,57.832-47.357,104.963-105.531,104.963
		c-58.173,0-105.531-47.7-105.531-105.532C23.679,91.871,71.038,43.829,129.21,43.829L129.21,43.829z"/>
	<path fill="#EBEBEB" d="M129.21,68.761c44.398,0,80.601,37.112,80.601,81.284c0,44.17-36.202,80.145-80.601,80.145
		c-44.398,0-80.6-36.43-80.6-80.601C48.61,105.418,84.812,68.761,129.21,68.761L129.21,68.761z"/>
	<path fill="#09D0AD" d="M173.154,140.823h-35.178V96.766c0-4.895-3.87-8.766-8.766-8.766c-4.895,0-8.766,3.871-8.766,8.766v52.823
		c0,4.896,3.984,8.767,8.766,8.767h43.943c4.895,0,8.766-3.985,8.766-8.767S178.048,140.823,173.154,140.823L173.154,140.823z"/>
	<g id="glocke-2">
	<path fill="#FF75C3" d="M227.001,30.737c1.479-1.594,2.504-3.871,2.504-6.261c0-5.009-4.098-9.107-9.107-9.107
		c-3.415,0-6.488,1.936-8.082,4.781C218.007,22.427,223.13,26.07,227.001,30.737z"/>
	<path fill="#DEBAD2" d="M227.001,30.737c-3.871-4.667-8.88-8.311-14.686-10.587c-3.984-1.48-8.311-2.391-12.75-2.391
		c-14.914,0-27.664,9.107-33.016,22.199c22.541,7.627,41.895,22.085,55.67,40.869c7.854-6.489,12.863-16.393,12.863-27.436
		C235.083,44.854,232.125,36.885,227.001,30.737z"/>
	</g>
	<g id="glocke-1">
	<path fill="#FF75C3" d="M28.233,30.737c-1.594-1.594-2.504-3.757-2.504-6.261c0-5.009,4.098-9.107,9.107-9.107
		c3.416,0,6.489,1.936,8.083,4.781C37.112,22.427,32.104,26.07,28.233,30.737z"/>
	<path fill="#DEBAD2" d="M28.233,30.737c3.871-4.667,8.879-8.311,14.686-10.587c3.984-1.48,8.311-2.391,12.75-2.391
		c14.913,0,27.664,9.107,33.014,22.199C66.028,47.586,46.675,62.044,32.9,80.828c-7.855-6.489-12.864-16.393-12.864-27.436
		C20.036,44.854,23.11,36.885,28.233,30.737z"/>
	<g>
</g>
</svg>
