<?xml version="1.0" encoding="utf-8"?>
<!-- Generator: Adobe Illustrator 16.0.0, SVG Export Plug-In . SVG Version: 6.00 Build 0)  -->
<!DOCTYPE svg PUBLIC "-//W3C//DTD SVG 1.1//EN" "http://www.w3.org/Graphics/SVG/1.1/DTD/svg11.dtd">
<svg version="1.1" id="Ebene_1" xmlns="http://www.w3.org/2000/svg" xmlns:xlink="http://www.w3.org/1999/xlink" x="0px" y="0px"
	 viewBox="-56.691 0 368.503 255.121" enable-background="new -56.691 0 368.503 255.121"
	 xml:space="preserve">
<g>
	<path id="Form_4" fill="#5B5B5B" d="M253.297,88.503c-5.378-15.859-21.784-25.886-41.29-27.344l-8.021-23.334
		c-1.641-4.648-6.653-7.109-11.394-5.56l-14.675,4.739c-4.558-20.873-25.43-28.894-50.495-28.894
		c-24.61,0-45.209,7.748-50.404,27.618l-10.846-3.555c-4.649-1.549-9.662,0.912-11.394,5.56l-8.021,23.333
		c-19.597,1.549-35.912,11.576-41.29,27.435c-7.838,22.969,10.208,49.402,40.378,59.063c30.17,9.661,60.886-1.003,68.725-23.972
		c5.469-16.042-1.732-33.815-16.954-46.394l7.93-23.151c1.55-4.558-1.002-9.479-5.56-10.938c-0.091,0-0.091,0-0.183-0.091
		L84.493,38.19c4.102-17.044,21.693-22.422,42.839-22.422c21.693,0,39.558,5.56,43.113,23.607l-11.484,3.737
		c-4.558,1.367-7.201,6.198-5.742,10.847c0,0.091,0,0.091,0.091,0.182l7.839,23.151c-15.131,12.578-22.422,30.352-16.953,46.394
		c7.838,22.969,38.555,33.633,68.725,23.971C243.089,137.997,261.136,111.473,253.297,88.503z M71.55,54.141
		c1.002-2.917,4.193-4.375,7.109-3.281c0.638,0.273,1.276,0.547,1.732,1.003l0,0l0,0c1.641,1.367,2.188,3.555,1.549,5.56
		c-0.638,1.823-2.096,3.099-4.01,3.464c-0.091,0.182-0.091,0.364-0.182,0.547c-0.912,2.734-2.917,4.648-4.466,4.192l0,0
		c-1.458-0.456-1.914-3.099-1.003-5.924c0.091-0.182,0.183-0.365,0.183-0.547C71.277,57.878,70.912,55.873,71.55,54.141z
		 M98.438,118.4c-5.56,16.133-27.162,23.698-48.399,16.862c-21.237-6.837-33.998-25.43-28.438-41.654
		c5.56-16.224,27.162-23.698,48.399-16.862C91.238,83.582,103.907,102.267,98.438,118.4z M178.375,51.863L178.375,51.863
		L178.375,51.863c2.279-2.005,5.834-1.823,7.838,0.456c0.457,0.547,0.82,1.094,1.004,1.732c0.637,1.731,0.182,3.737-1.004,5.104
		c0.092,0.182,0.092,0.365,0.184,0.547c0.91,2.826,0.547,5.469-1.004,5.924l0,0c-1.457,0.456-3.463-1.367-4.375-4.192
		c-0.09-0.183-0.09-0.365-0.182-0.547c-1.822-0.365-3.373-1.732-4.011-3.464C176.187,55.508,176.734,53.23,178.375,51.863z
		 M208.726,135.353c-21.236,6.836-42.93-0.729-48.398-16.862c-5.469-16.133,7.2-34.818,28.438-41.654s42.93,0.729,48.398,16.862
		C242.632,109.832,229.963,128.517,208.726,135.353z"/>
	<path id="Form_5" fill="#FF75C3" d="M144.103,141.004c23.698-23.698,62.071-23.79,85.86-0.091
		c22.149,22.148,23.881,57.422,3.919,81.576c1.914,3.919,5.105,8.477,9.754,10.755c2.188,1.094,3.463,3.464,3.099,5.925
		s-2.278,4.375-4.739,4.74c-1.551,0.273-3.191,0.363-4.832,0.363c-7.656,0-15.221-2.551-21.328-7.109
		c-29.439,15.951-66.264,5.014-82.214-24.427C120.861,189.22,125.145,159.962,144.103,141.004L144.103,141.004L144.103,141.004z
		 M149.025,221.851c17.318,17.318,44.207,20.691,65.262,8.386c1.367-0.82,3.099-0.547,4.192,0.547
		c0.091,0.091,0.183,0.091,0.273,0.183c5.195,4.192,11.667,6.471,18.321,6.471l0,0c-5.196-3.828-8.478-9.388-10.392-13.763
		c-0.456-1.458-0.273-3.008,0.638-4.192c19.598-22.24,17.5-56.238-4.739-75.834c-22.239-19.597-56.237-17.5-75.834,4.739
		C128.062,169.625,129.064,201.799,149.025,221.851L149.025,221.851L149.025,221.851z M163.973,126.603l-14.583,7.291l10.025,9.115
		l15.495-7.291L163.973,126.603z"/>
	<path id="_" fill="#FF75C3" d="M178.283,193.414h15.678l2.37-40.469h-20.69L178.283,193.414z M175.914,208.179
		c0,5.651,4.648,10.209,10.299,10.209c5.652,0,10.209-4.648,10.209-10.3s-4.648-10.208-10.209-10.208
		C180.47,197.88,175.914,202.529,175.914,208.179z"/>
	<path id="Form_5_Kopie" fill="#09D0AD" d="M103.634,143.465c-23.698-23.698-62.071-23.79-85.86-0.091
		c-22.148,22.148-23.88,57.422-3.919,81.576c-1.914,3.919-5.104,8.477-9.753,10.755c-2.826,1.368-4.01,4.831-2.552,7.565
		c0.82,1.641,2.37,2.826,4.193,3.1c1.549,0.273,3.19,0.363,4.831,0.363c7.656,0,15.221-2.461,21.328-7.109
		c29.44,15.951,66.264,5.014,82.214-24.427C126.968,191.682,122.684,162.423,103.634,143.465L103.634,143.465L103.634,143.465z
		 M98.712,224.312c-17.318,17.318-44.206,20.691-65.261,8.386c-1.367-0.82-3.099-0.547-4.192,0.547
		c-0.091,0.091-0.183,0.091-0.273,0.183c-5.195,4.193-11.667,6.471-18.321,6.471l0,0c5.195-3.828,8.477-9.388,10.391-13.763
		c0.456-1.458,0.273-3.008-0.638-4.192c-19.597-22.24-17.5-56.238,4.74-75.834c22.24-19.597,56.237-17.5,75.834,4.739
		C119.676,171.994,118.764,204.169,98.712,224.312L98.712,224.312L98.712,224.312z M91.056,130.25l-17.318,7.291l16.406,10.026
		l14.583-8.203L91.056,130.25z"/>
	<path id="_2" fill="#09D0AD" d="M52.227,188.947c-0.091,3.282,0.82,6.473,2.644,9.207l15.312-3.464
		c-0.729-1.094-1.094-2.278-1.094-3.555c0-2.735,2.279-4.466,5.013-6.472c4.01-3.008,8.75-6.654,8.75-14.675
		c0-9.57-8.203-15.495-21.237-15.495c-7.565,0-15.859,2.826-21.511,8.75l10.847,12.487c2.37-2.552,5.924-4.011,8.385-4.011
		c3.008,0,3.737,0.82,3.737,2.006c0,1.094-1.276,1.914-3.008,3.099C56.875,178.921,52.227,182.111,52.227,188.947z M51.771,210.64
		c0,5.742,4.557,10.391,10.299,10.391c5.743,0,10.391-4.557,10.391-10.299s-4.558-10.391-10.3-10.391l0,0
		C56.42,200.341,51.863,204.898,51.771,210.64z"/>
</g>
</svg>
