<?xml version="1.0" encoding="utf-8"?>
<!-- Generator: Adobe Illustrator 20.0.0, SVG Export Plug-In . SVG Version: 6.00 Build 0)  -->
<svg version="1.1" id="Ebene_1" xmlns="http://www.w3.org/2000/svg" xmlns:xlink="http://www.w3.org/1999/xlink" x="0px" y="0px"
	 viewBox="0 0 517.2 448.8" style="enable-background:new 0 0 517.2 448.8;" xml:space="preserve">
<style type="text/css">
	.st0{fill:#4AB6A1;}
	.st1{fill:#EF847A;}
	.st2{fill:#F4F4F4;}
	.st3{fill:#F4F4F4;stroke:#4AB6A1;stroke-width:1.8018;stroke-miterlimit:10;}
	.st4{fill:#663E7F;}
	.st5{fill:#09D0AD;}
	.st6{fill:#FFFFFF;}
	.st7{fill:#311A42;}
	.st8{fill:#E77AAD;}
	.st9{fill:#D4E1F2;}
	.st10{fill:#00A3A5;}
	.st11{fill:#FF75C3;}
	.st12{fill:#08D0AC;}
	.st13{fill:#663D7E;}
	.st14{fill:#471E5F;}
	.st15{fill:#DEBAD2;}
	.st16{fill:#D5E2F3;}
	.st17{fill:#5B5B5B;}
	.st18{fill-rule:evenodd;clip-rule:evenodd;fill:#FF75C3;}
	.st19{fill:none;stroke:#FF75C3;stroke-width:4;}
	.st20{fill:#3D1800;}
	.st21{fill:#BBD1D4;}
	.st22{fill:#F5D2CD;}
	.st23{fill:#5C5C5C;}
	.st24{fill:#C7CAC7;}
	.st25{fill:#232323;}
	.st26{fill:#FF8879;}
	.st27{fill:#AAAAAA;}
	.st28{fill:#FCEAEA;}
	.st29{fill:#F5D3CD;}
	.st30{fill:#FF8779;}
	.st31{fill:#D4E1F3;}
	.st32{fill:#EBEBEB;}
	.st33{fill:#FFE65D;}
	.st34{fill:#FFC4BD;}
</style>
<g>
	<path class="st11" d="M277.8,250H145.1c-5.2,0-9.9-3.1-11.8-7.8c-2-4.7-0.8-10.1,2.9-13.6l110.4-106.3H145.1
		c-7.1,0-12.8-5.7-12.8-12.5c0-6.9,5.7-12.5,12.8-12.5h132.7c5.2,0,9.9,3.1,11.8,7.8c2,4.7,0.8,10-2.9,13.6L176.4,225h101.5
		c7,0,12.8,5.6,12.8,12.5C290.6,244.5,284.9,250,277.8,250z M426.5,275.7H364l71.5-68.8c3.7-3.6,4.8-8.9,2.9-13.6
		c-2-4.7-6.7-7.8-11.9-7.8h-93.8c-7,0-12.8,5.6-12.8,12.5c0,6.8,5.8,12.5,12.8,12.5h62.6l-71.5,68.8c-3.7,3.6-4.8,8.9-2.9,13.6
		c2,4.7,6.6,7.8,11.8,7.8h93.8c7.1,0,12.8-5.6,12.8-12.5C439.3,281.3,433.6,275.7,426.5,275.7z M282.3,382.1h-43.6l52.6-50.6
		c3.7-3.6,4.8-9,2.9-13.7c-2-4.7-6.6-7.8-11.8-7.8h-74.8c-7,0-12.8,5.6-12.8,12.5c0,6.9,5.7,12.5,12.8,12.5h43.6l-52.6,50.6
		c-3.7,3.6-4.8,8.9-2.9,13.6c2,4.7,6.6,7.8,11.8,7.8h74.8c7.1,0,12.8-5.6,12.8-12.5C295.1,387.7,289.4,382.1,282.3,382.1z"/>
	<g>
		<path class="st26" d="M33.2,446.5L2.3,415.6l10.9-10.9l30.9,30.9L33.2,446.5z"/>
		<g>
			<path class="st29" d="M22.1,448.8L0,426.7l6.6-6.6l22.1,22.1L22.1,448.8z"/>
			<path class="st29" d="M122.5,369.5c3.7-3.7,6-8.2,7-13c0.7-3.4,3.4-6.1,6.8-6.8c4.8-1,9.3-3.4,13-7c4.9-4.9,7.4-11.3,7.6-17.8
				c0-1.5,0.5-2.9,1.4-4.2c5.6-8.5,4.6-20-2.8-27.4c-7.4-7.4-19-8.4-27.4-2.8c-1.2,0.8-2.7,1.3-4.2,1.4c-6.5,0.2-12.9,2.7-17.8,7.6
				c-3.7,3.7-6,8.2-7,13c-0.7,3.4-3.4,6.1-6.8,6.8c-4.8,1-9.3,3.4-13,7c-3.1,3.1-5.2,6.7-6.4,10.6c-0.8,2.7-2.9,4.8-5.6,5.6
				c-3.9,1.2-7.6,3.3-10.6,6.4c-3.7,3.7-6,8.2-7,13c-0.7,3.4-3.4,6.1-6.8,6.8c-4.8,1-9.3,3.4-13,7c-4.7,4.7-7.2,10.7-7.6,16.8
				c-0.1,2.2-1,4.2-2.6,5.7l-6.5,6.5l30.9,30.9l6.5-6.5c1.5-1.5,3.5-2.4,5.7-2.6c6.1-0.4,12.1-2.9,16.8-7.6c3.7-3.7,6-8.2,7-13
				c0.7-3.4,3.4-6.1,6.8-6.8c4.8-1,9.3-3.4,13-7c3.1-3.1,5.2-6.7,6.4-10.6c0.8-2.7,2.9-4.8,5.6-5.6
				C115.8,374.7,119.4,372.6,122.5,369.5"/>
		</g>
		<g>
			<path class="st28" d="M140.2,313.9c-0.8,0-1.6-0.3-2.2-0.9c-3.1-3-7.8-4-11.9-2.4c-1.6,0.6-3.4-0.1-4.1-1.7
				c-0.6-1.6,0.1-3.4,1.7-4.1c6.4-2.6,13.7-1.1,18.6,3.8c1.2,1.2,1.2,3.2,0,4.4C141.8,313.6,141,313.9,140.2,313.9"/>
			<path class="st28" d="M99.1,335.2c-0.8,0-1.6-0.3-2.2-0.9c-1.2-1.2-1.2-3.2,0-4.4l15.4-15.4c1.2-1.2,3.2-1.2,4.4,0
				c1.2,1.2,1.2,3.2,0,4.4l-15.4,15.4C100.7,334.9,99.9,335.2,99.1,335.2"/>
		</g>
	</g>
	<g>
		<path class="st26" d="M460.1,256.3l-13.7-13.7l4.9-4.9l13.7,13.7L460.1,256.3z"/>
		<g>
			<path class="st29" d="M455.2,257.4l-9.8-9.8l2.9-2.9l9.8,9.8L455.2,257.4z"/>
			<path class="st29" d="M499.7,222.1c1.6-1.6,2.7-3.6,3.1-5.8c0.3-1.5,1.5-2.7,3-3c2.1-0.5,4.1-1.5,5.8-3.1c2.2-2.2,3.3-5,3.4-7.9
				c0-0.7,0.2-1.3,0.6-1.9c2.5-3.8,2.1-8.9-1.2-12.2c-3.3-3.3-8.4-3.7-12.2-1.2c-0.6,0.4-1.2,0.6-1.9,0.6c-2.9,0.1-5.7,1.2-7.9,3.4
				c-1.6,1.6-2.7,3.6-3.1,5.8c-0.3,1.5-1.5,2.7-3,3c-2.1,0.5-4.1,1.5-5.8,3.1c-1.4,1.4-2.3,3-2.9,4.7c-0.4,1.2-1.3,2.1-2.5,2.5
				c-1.7,0.5-3.4,1.5-4.7,2.9c-1.6,1.6-2.7,3.6-3.1,5.8c-0.3,1.5-1.5,2.7-3,3c-2.1,0.5-4.1,1.5-5.8,3.1c-2.1,2.1-3.2,4.7-3.4,7.5
				c-0.1,1-0.5,1.9-1.1,2.5l-2.9,2.9l13.7,13.7l2.9-2.9c0.7-0.7,1.6-1.1,2.5-1.1c2.7-0.2,5.4-1.3,7.5-3.4c1.6-1.6,2.7-3.6,3.1-5.8
				c0.3-1.5,1.5-2.7,3-3c2.1-0.5,4.1-1.5,5.8-3.1c1.4-1.4,2.3-3,2.8-4.7c0.4-1.2,1.3-2.1,2.5-2.5
				C496.7,224.5,498.4,223.5,499.7,222.1"/>
		</g>
		<g>
			<path class="st28" d="M507.6,197.5c-0.4,0-0.7-0.1-1-0.4c-1.4-1.3-3.5-1.8-5.3-1.1c-0.7,0.3-1.5-0.1-1.8-0.8
				c-0.3-0.7,0.1-1.5,0.8-1.8c2.9-1.1,6.1-0.5,8.3,1.7c0.5,0.5,0.5,1.4,0,2C508.3,197.3,508,197.5,507.6,197.5"/>
			<path class="st28" d="M489.3,206.9c-0.4,0-0.7-0.1-1-0.4c-0.5-0.5-0.5-1.4,0-2l6.8-6.8c0.5-0.5,1.4-0.5,2,0c0.5,0.5,0.5,1.4,0,2
				l-6.8,6.8C490,206.7,489.7,206.9,489.3,206.9"/>
		</g>
	</g>
	<g id="dildo_lang_1_">
		<path id="Form_585_1_" class="st12" d="M453.8,5.8c-7.8-7.8-20.5-7.8-28.3,0L320.2,111.2l28.2,28.2L453.8,34
			C461.6,26.2,461.6,13.6,453.8,5.8"/>
		
			<rect id="Rechteck_586_1_" x="311.3" y="112.9" transform="matrix(0.7071 -0.7071 0.7071 0.7071 -0.2515 269.1403)" class="st13" width="27" height="44"/>
		
			<rect id="Rechteck_588_1_" x="307.2" y="123.6" transform="matrix(0.7071 -0.7071 0.7071 0.7071 4.2026 259.3873)" class="st14" width="16" height="2"/>
		
			<rect id="Rechteck_588_Kopie_1_" x="313.6" y="130" transform="matrix(0.7071 -0.7071 0.7071 0.7071 1.5665 265.7512)" class="st14" width="16" height="2"/>
		
			<rect id="Rechteck_588_Kopie_2_1_" x="319.9" y="136.3" transform="matrix(0.7071 -0.7071 0.7071 0.7071 -1.0695 272.1152)" class="st14" width="16" height="2"/>
		
			<rect id="Rechteck_588_Kopie_3_1_" x="326.3" y="142.7" transform="matrix(0.7071 -0.7071 0.7071 0.7071 -3.7055 278.4791)" class="st14" width="16" height="2"/>
		<ellipse transform="matrix(0.7071 -0.7071 0.7071 0.7071 120.9463 313.5431)" class="st6" cx="439" cy="10.8" rx="5" ry="5"/>
	</g>
	<g id="dildo_lang_2_">
		<path id="Form_585_2_" class="st12" d="M140.7,141.1c-3.3-3.2-8.6-3.2-11.8,0l-44.1,44.1L96.6,197l44.1-44.1
			C143.9,149.6,143.9,144.4,140.7,141.1"/>
		
			<rect id="Rechteck_586_2_" x="81" y="185.9" transform="matrix(0.7071 -0.7071 0.7071 0.7071 -112.5769 118.4226)" class="st13" width="11.3" height="18.4"/>
		
			<rect id="Rechteck_588_2_" x="79.3" y="190.4" transform="matrix(0.7071 -0.7071 0.7071 0.7071 -110.7126 114.3402)" class="st14" width="6.7" height="0.8"/>
		
			<rect id="Rechteck_588_Kopie_2_" x="82" y="193.1" transform="matrix(0.7071 -0.7071 0.7071 0.7071 -111.8159 117.004)" class="st14" width="6.7" height="0.8"/>
		
			<rect id="Rechteck_588_Kopie_2_2_" x="84.6" y="195.7" transform="matrix(0.7071 -0.7071 0.7071 0.7071 -112.9193 119.6678)" class="st14" width="6.7" height="0.8"/>
		
			<rect id="Rechteck_588_Kopie_3_2_" x="87.3" y="198.4" transform="matrix(0.7071 -0.7071 0.7071 0.7071 -114.0227 122.3316)" class="st14" width="6.7" height="0.8"/>
		
			<ellipse transform="matrix(0.7071 -0.7071 0.7071 0.7071 -61.8465 137.0085)" class="st6" cx="134.5" cy="143.2" rx="2.1" ry="2.1"/>
	</g>
	<g id="dildo_lang_3_">
		<path id="Form_585_3_" class="st12" d="M389.3,335.6c-3.3-3.2-8.6-3.2-11.8,0l-44.1,44.1l11.8,11.8l44.1-44.1
			C392.5,344.1,392.5,338.9,389.3,335.6"/>
		
			<rect id="Rechteck_586_3_" x="329.6" y="380.4" transform="matrix(0.7071 -0.7071 0.7071 0.7071 -177.2953 351.1787)" class="st13" width="11.3" height="18.4"/>
		
			<rect id="Rechteck_588_3_" x="327.9" y="384.9" transform="matrix(0.7071 -0.7071 0.7071 0.7071 -175.4309 347.0963)" class="st14" width="6.7" height="0.8"/>
		
			<rect id="Rechteck_588_Kopie_3_" x="330.6" y="387.6" transform="matrix(0.7071 -0.7071 0.7071 0.7071 -176.5343 349.7601)" class="st14" width="6.7" height="0.8"/>
		
			<rect id="Rechteck_588_Kopie_2_3_" x="333.2" y="390.2" transform="matrix(0.7071 -0.7071 0.7071 0.7071 -177.6377 352.4239)" class="st14" width="6.7" height="0.8"/>
		
			<rect id="Rechteck_588_Kopie_3_3_" x="335.9" y="392.9" transform="matrix(0.7071 -0.7071 0.7071 0.7071 -178.741 355.0877)" class="st14" width="6.7" height="0.8"/>
		
			<ellipse transform="matrix(0.7071 -0.7071 0.7071 0.7071 -126.5649 369.7646)" class="st6" cx="383.1" cy="337.7" rx="2.1" ry="2.1"/>
	</g>
</g>
</svg>
