<?xml version="1.0" encoding="utf-8"?>
<!-- Generator: Adobe Illustrator 20.0.0, SVG Export Plug-In . SVG Version: 6.00 Build 0)  -->
<svg version="1.1" id="Ebene_1" xmlns="http://www.w3.org/2000/svg" xmlns:xlink="http://www.w3.org/1999/xlink" x="0px" y="0px"
	 viewBox="0 0 283 245" style="enable-background:new 0 0 283 245;" xml:space="preserve">
<style type="text/css">
	.st0{fill:#4AB6A1;}
	.st1{fill:#EF847A;}
	.st2{fill:#F4F4F4;}
	.st3{fill:#F4F4F4;stroke:#4AB6A1;stroke-width:1.8018;stroke-miterlimit:10;}
	.st4{fill:#663E7F;}
	.st5{fill:#09D0AD;}
	.st6{fill:#FFFFFF;}
	.st7{fill:#311A42;}
	.st8{fill:#E77AAD;}
	.st9{fill:#D4E1F2;}
	.st10{fill:#00A3A5;}
	.st11{fill:#FF75C3;}
	.st12{fill:#08D0AC;}
	.st13{fill:#663D7E;}
	.st14{fill:#471E5F;}
	.st15{fill:#DEBAD2;}
	.st16{fill:#D5E2F3;}
	.st17{fill:#5B5B5B;}
	.st18{fill-rule:evenodd;clip-rule:evenodd;fill:#FF75C3;}
	.st19{fill:none;stroke:#FF75C3;stroke-width:4;}
	.st20{fill:#3D1800;}
	.st21{fill:#BBD1D4;}
	.st22{fill:#F5D2CD;}
	.st23{fill:#5C5C5C;}
	.st24{fill:#C7CAC7;}
	.st25{fill:#232323;}
	.st26{fill:#FF8879;}
	.st27{fill:#AAAAAA;}
	.st28{fill:#FCEAEA;}
	.st29{fill:#F5D3CD;}
	.st30{fill:#FF8779;}
	.st31{fill:#D4E1F3;}
	.st32{fill:#EBEBEB;}
	.st33{fill:#FFE65D;}
	.st34{fill:#FFC4BD;}
</style>
<path class="st20" d="M142.1,139.6c18.9-29.7,49.2-51.7,83.5-59.5c30.2-6.9,53.9-10.5,57-11L283,68l-1.8-0.5c0.7,0.4,1,0.7,1,0.7
	s-47.7,2.7-97.7,14.9c-15.5,3.8-31.5,4.8-47.3,3l-22.4-3.1l-19.2,29.2c-5.8,9.2-13.2,17.2-21.9,23.8c-31.5,24.1-58.1,51-68.7,62.3
	l-0.4,1.6c7.1-6.1,21.3-18.1,38.8-31.7C71.3,146.4,107.1,135.6,142.1,139.6z"/>
<g>
	<path class="st11" d="M282.6,69.1c-3.2,0.5-26.8,4-57,11c-34.4,7.9-64.7,29.8-83.5,59.5c-35-4-70.7,6.8-98.4,28.4
		c-17.5,13.6-31.7,25.7-38.8,31.7c-3.1,2.6-4.8,4.2-4.8,4.2s89.7,46.2,122.6,40.7c24.7-4.1,96.3-38.2,115-54.8
		c25-22.1,45.4-120.7,45.4-120.7S282.9,69.1,282.6,69.1z"/>
	<path class="st11" d="M73.9,135.9c8.6-6.6,16-14.7,21.9-23.8l19.2-29.2l22.4,3.1c15.8,1.8,31.8,0.8,47.3-3
		c49.9-12.2,97.7-14.9,97.7-14.9s-0.4-0.2-1-0.7c-9.9-6.2-87.5-55.1-118.2-65.9C130.3-10,103.5,45.8,98.3,48.2
		c-5.1,2.4-62.7-12.5-74.4,20.4C12.3,101.5,0.1,203.6,0.1,203.6s1.8-2,5.1-5.4C15.9,186.9,42.4,160,73.9,135.9z"/>
</g>
</svg>
