<?xml version="1.0" encoding="utf-8"?>
<!-- Generator: Adobe Illustrator 20.0.0, SVG Export Plug-In . SVG Version: 6.00 Build 0)  -->
<svg version="1.1" id="Ebene_1" xmlns="http://www.w3.org/2000/svg" xmlns:xlink="http://www.w3.org/1999/xlink" x="0px" y="0px"
	 viewBox="0 0 188.9 224.1" style="enable-background:new 0 0 188.9 224.1;" xml:space="preserve">
<style type="text/css">
	.st0{fill:#4AB6A1;}
	.st1{fill:#EF847A;}
	.st2{fill:#F4F4F4;}
	.st3{fill:#F4F4F4;stroke:#4AB6A1;stroke-width:1.8018;stroke-miterlimit:10;}
	.st4{fill:#663E7F;}
	.st5{fill:#09D0AD;}
	.st6{fill:#FFFFFF;}
	.st7{fill:#311A42;}
	.st8{fill:#E77AAD;}
	.st9{fill:#D4E1F2;}
	.st10{fill:#00A3A5;}
	.st11{fill:#FF75C3;}
	.st12{fill:#08D0AC;}
	.st13{fill:#663D7E;}
	.st14{fill:#471E5F;}
	.st15{fill:#DEBAD2;}
	.st16{fill:#D5E2F3;}
	.st17{fill:#5B5B5B;}
	.st18{fill-rule:evenodd;clip-rule:evenodd;fill:#FF75C3;}
	.st19{fill:none;stroke:#FF75C3;stroke-width:4;}
	.st20{fill:#3D1800;}
	.st21{fill:#BBD1D4;}
	.st22{fill:#F5D2CD;}
	.st23{fill:#5C5C5C;}
	.st24{fill:#C7CAC7;}
	.st25{fill:#232323;}
	.st26{fill:#FF8879;}
	.st27{fill:#AAAAAA;}
	.st28{fill:#FCEAEA;}
	.st29{fill:#F5D3CD;}
	.st30{fill:#FF8779;}
	.st31{fill:#D4E1F3;}
	.st32{fill:#EBEBEB;}
	.st33{fill:#FFE65D;}
	.st34{fill:#FFC4BD;}
</style>
<g>
	<path class="st27" d="M111.3,15.5c0-8.5-6.9-15.5-15.5-15.5c-8.5,0-15.5,6.9-15.5,15.5c0,5.8,3.2,10.7,7.8,13.4v17.5h15.2V28.8
		C108.2,26.2,111.3,21.2,111.3,15.5L111.3,15.5z M74.2,141.3L5.3,210.2c-3.2,3.2-3.2,8.3,0,11.5c3.2,3.2,8.3,3.2,11.5,0l68.9-68.9
		c3.2-3.2,3.2-8.3,0-11.5C82.6,138.1,77.4,138.1,74.2,141.3L74.2,141.3z M186.4,210.2l-68.9-68.9c-3.2-3.2-8.3-3.2-11.5,0
		c-3.2,3.2-3.2,8.3,0,11.5l68.9,68.9c3.2,3.2,8.3,3.2,11.5,0C189.6,218.5,189.6,213.4,186.4,210.2L186.4,210.2z M186.4,210.2"/>
	<path class="st17" d="M95.9,38.5c51.1,0,92.7,42.7,92.7,93.4c0,50.8-41.6,92.2-92.7,92.2c-51.1,0-92.7-41.9-92.7-92.7
		C3.2,80.7,44.8,38.5,95.9,38.5L95.9,38.5z M95.9,38.5"/>
	<path class="st32" d="M95.9,60.4c39,0,70.8,32.6,70.8,71.4c0,38.8-31.8,70.4-70.8,70.4c-39,0-70.8-32-70.8-70.8
		C25.1,92.6,56.9,60.4,95.9,60.4L95.9,60.4z M95.9,60.4"/>
	<path class="st5" d="M134.5,123.7h-30.9V85c0-4.3-3.4-7.7-7.7-7.7c-4.3,0-7.7,3.4-7.7,7.7v46.4c0,4.3,3.5,7.7,7.7,7.7h38.6
		c4.3,0,7.7-3.5,7.7-7.7S138.8,123.7,134.5,123.7L134.5,123.7z M134.5,123.7"/>
	<path class="st11" d="M181.8,27c1.3-1.4,2.2-3.4,2.2-5.5c0-4.4-3.6-8-8-8c-3,0-5.7,1.7-7.1,4.2C173.9,19.7,178.4,22.9,181.8,27z"/>
	<path class="st15" d="M181.8,27c-3.4-4.1-7.8-7.3-12.9-9.3c-3.5-1.3-7.3-2.1-11.2-2.1c-13.1,0-24.3,8-29,19.5
		c19.8,6.7,36.8,19.4,48.9,35.9c6.9-5.7,11.3-14.4,11.3-24.1C188.9,39.4,186.3,32.4,181.8,27z"/>
	<path class="st11" d="M7.2,27C5.8,25.6,5,23.7,5,21.5c0-4.4,3.6-8,8-8c3,0,5.7,1.7,7.1,4.2C15,19.7,10.6,22.9,7.2,27z"/>
	<path class="st15" d="M7.2,27c3.4-4.1,7.8-7.3,12.9-9.3c3.5-1.3,7.3-2.1,11.2-2.1c13.1,0,24.3,8,29,19.5
		C40.4,41.8,23.4,54.5,11.3,71C4.4,65.3,0,56.6,0,46.9C0,39.4,2.7,32.4,7.2,27z"/>
</g>
</svg>
