<?xml version="1.0" encoding="utf-8"?>
<!-- Generator: Adobe Illustrator 20.0.0, SVG Export Plug-In . SVG Version: 6.00 Build 0)  -->
<svg version="1.1" id="Ebene_1" xmlns="http://www.w3.org/2000/svg" xmlns:xlink="http://www.w3.org/1999/xlink" x="0px" y="0px"
	 viewBox="0 0 295.3 105.9" style="enable-background:new 0 0 295.3 105.9;" preserveAspectRatio="xMinYMid meet" xml:space="preserve">
<style type="text/css">
	.st0{fill:#4AB6A1;}
	.st1{fill:#EF847A;}
	.st2{fill:#F4F4F4;}
	.st3{fill:#F4F4F4;stroke:#4AB6A1;stroke-width:1.8018;stroke-miterlimit:10;}
	.st4{fill:#663E7F;}
	.st5{fill:#09D0AD;}
	.st6{fill:#FFFFFF;}
	.st7{fill:#311A42;}
	.st8{fill:#E77AAD;}
	.st9{fill:#D4E1F2;}
	.st10{fill:#00A3A5;}
	.st11{fill:#FF75C3;}
	.st12{fill:#08D0AC;}
	.st13{fill:#663D7E;}
	.st14{fill:#471E5F;}
	.st15{fill:#DEBAD2;}
	.st16{fill:#D5E2F3;}
	.st17{fill:#5B5B5B;}
	.st18{fill-rule:evenodd;clip-rule:evenodd;fill:#FF75C3;}
	.st19{fill:none;stroke:#FF75C3;stroke-width:4;}
	.st20{fill:#3D1800;}
	.st21{fill:#BBD1D4;}
	.st22{fill:#F5D2CD;}
	.st23{fill:#5C5C5C;}
	.st24{fill:#C7CAC7;}
	.st25{fill:#232323;}
	.st26{fill:#FF8879;}
	.st27{fill:#AAAAAA;}
	.st28{fill:#FCEAEA;}
	.st29{fill:#F5D3CD;}
	.st30{fill:#FF8779;}
	.st31{fill:#D4E1F3;}
	.st32{fill:#EBEBEB;}
	.st33{fill:#FFE65D;}
	.st34{fill:#FFC4BD;}
</style>
<path class="st15" d="M107.5,34.6h9.9v-34H107v17.1L95.2,0.6H84.6v34h10.3V16.3L107.5,34.6z M148.1,34.6h11.2l-12.5-34h-13l-12.5,34
	h11.2l1.3-4.4h13.1L148.1,34.6z M140.2,9.6l3.9,12h-7.8L140.2,9.6z M178.2,35.2c9.2,0,13.7-5.4,15.7-9.9l-8.9-4.1
	c-0.9,2.7-3.5,4.9-6.8,4.9c-4.7,0-8-3.8-8-8.5s3.3-8.5,8-8.5c3.3,0,6,2.3,6.8,4.9l8.9-4.1c-2-4.7-6.5-9.9-15.7-9.9
	c-10.4,0-18.5,7.1-18.5,17.6C159.8,28,167.8,35.2,178.2,35.2z M219,34.6h12.5l-13.4-18.2L231,0.6h-12.6l-8.9,12.7V0.6h-10.3v34h10.3
	v-9.4l1.9-2.5L219,34.6z M242.8,34.6h10.3v-25h9.1v-9h-28.5v9h9.1V34.6z M267.8,34.6h25.8V26h-15.5v-4.3h15.1v-8.6h-15.1v-4h15.5
	V0.6h-25.8V34.6z"/>
<g>
	<g>
		<g>
			<path class="st5" d="M14.3,26.6c-2.6,0-6.6-1.1-9.2-3.4l-5,6.7c2.9,3.1,8,5.3,14.7,5.3c8.8,0,14.8-4.1,14.8-10.2
				c0-4.7-4.3-7.5-8.1-8c4.3-0.7,7.5-3.9,7.5-7.5c0-5.6-4.8-9.4-14.2-9.4C8.1,0.1,3.5,2.3,0.5,5.7l4.7,6.2c2.3-1.9,5.6-3.2,8.5-3.2
				c3,0,5,0.9,5,2.4c0,1.2-1.4,2-4.7,2c-1.2,0-4.3,0-4.9-0.1v8.7c0.5-0.1,3.5-0.1,4.9-0.1c4.5,0,5.3,1,5.3,2.2
				C19.2,25.3,17.6,26.6,14.3,26.6z M50,35.2c8.1,0,14.1-4.8,14.1-12.2c0-7.2-5.9-11.1-12-11.1c-3.1,0-6.2,1.2-7.9,3.5v-0.1
				c0-4.1,3.6-6.6,7.4-6.6c2.5,0,4.3,0.5,6.3,1.8L62.3,3c-2.7-1.8-6.7-3-10.6-3c-10.6,0-17.8,6.2-17.8,17.6
				C33.8,27.6,38.9,35.2,50,35.2z M49,20.2c2.3,0,4.7,0.9,4.7,3.3c0,1.6-1.5,3.1-4.1,3.1c-3.8,0-5.2-2.7-5.4-5
				C45.6,20.6,47.2,20.2,49,20.2z M28.8,46.6H0.3v9h9.1v25h10.3v-25h9.1V46.6z M38.3,46.6l-12.5,34h11.2l1.3-4.4h13.1l1.3,4.4h11.2
				l-12.5-34H38.3z M40.9,67.6l3.9-12l3.9,12H40.9z M60.7,55.5h9.1v25h10.3v-25h9.1v-9H60.7V55.5z M106.4,58.9c-3.6-0.6-5-1.1-5-2.4
				c0-0.9,0.6-1.8,3.1-1.8c2.7,0,6.5,1.1,9.5,3.4l5.5-7.3c-3.9-3.2-8.9-4.7-14.4-4.7c-9.3,0-14.1,5.3-14.1,11
				c0,8.5,8.6,9.8,14.2,10.9c3.4,0.6,4.8,1.3,4.8,2.6c0,1.3-1.8,2-3.8,2c-4.6,0-8.4-1.9-11-4.4l-5.4,7.6c3.6,3.3,8.6,5.4,15.8,5.4
				c9.1,0,14.7-4.3,14.7-11.8C120.3,61.5,112,59.9,106.4,58.9z M132.5,46.6l-12.5,34h11.2l1.3-4.4h13.1l1.3,4.4H158l-12.5-34H132.5z
				 M135.1,67.6l3.9-12l3.9,12H135.1z M175,55.1c3.3,0,6,2.3,6.8,4.9l8.9-4.1c-2-4.7-6.5-9.9-15.7-9.9c-10.4,0-18.5,7.1-18.5,17.6
				c0,10.5,8.1,17.6,18.5,17.6c9.2,0,13.7-5.4,15.7-9.9l-8.9-4.1c-0.9,2.7-3.5,4.9-6.8,4.9c-4.7,0-8-3.8-8-8.5S170.3,55.1,175,55.1z
				 M216.4,58.6h-12.2v-12h-10.3v34h10.3v-13h12.2v13h10.3v-34h-10.3V58.6z M232.2,80.6H258V72h-15.5v-4.3h15.1v-8.6h-15.1v-4H258
				v-8.6h-25.8V80.6z M285,46.6v17.1l-11.8-17.1h-10.6v34h10.3V62.3l12.5,18.3h9.9v-34H285z"/>
		</g>
	</g>
	<g>
		<path d="M171.5,104.9l6.2-13.1c0.1-0.1,0.2-0.2,0.3-0.2h0.2c0.2,0,0.3,0.1,0.3,0.2l6.1,13.1c0.1,0.3,0,0.5-0.3,0.5h-1.7
			c-0.3,0-0.4-0.1-0.6-0.4l-1-2.1h-5.9l-1,2.1c-0.1,0.2-0.3,0.4-0.6,0.4h-1.7C171.6,105.4,171.4,105.2,171.5,104.9z M180.1,100.8
			l-2-4.3h-0.1l-1.9,4.3H180.1z"/>
		<path d="M192,91.9c0-0.2,0.1-0.3,0.4-0.3h0.3c0.2,0,0.3,0.1,0.3,0.2l4.4,9.2c0,0,0,0,0.1,0l4.4-9.2c0.1-0.1,0.2-0.2,0.3-0.2h0.3
			c0.2,0,0.3,0.1,0.4,0.3l2.3,13.1c0.1,0.3-0.1,0.4-0.4,0.4H203c-0.2,0-0.3-0.2-0.4-0.3l-1.2-7.4c0,0-0.1,0-0.1,0l-3.5,7.6
			c0,0.1-0.2,0.2-0.3,0.2h-0.4c-0.2,0-0.3-0.1-0.3-0.2l-3.5-7.6c0,0,0,0-0.1,0l-1.2,7.4c0,0.1-0.2,0.3-0.4,0.3H190
			c-0.3,0-0.4-0.2-0.4-0.4L192,91.9z"/>
		<path d="M217.3,91.6c4,0,7.1,3.1,7.1,7s-3.2,7-7.1,7c-4,0-7.1-3.1-7.1-7S213.3,91.6,217.3,91.6z M217.3,103.1c2.5,0,4.6-2,4.6-4.5
			c0-2.4-2.1-4.5-4.6-4.5c-2.5,0-4.5,2-4.5,4.5C212.7,101.1,214.8,103.1,217.3,103.1z"/>
		<path d="M230.2,92.2c0-0.2,0.2-0.4,0.4-0.4h5.7c2.4,0,4.3,1.9,4.3,4.2c0,1.8-1.2,3.2-2.9,3.9l2.7,4.9c0.1,0.3,0,0.6-0.3,0.6H238
			c-0.2,0-0.3-0.1-0.3-0.2l-2.6-5.2h-2.2v5c0,0.2-0.2,0.4-0.4,0.4h-1.8c-0.2,0-0.4-0.2-0.4-0.4V92.2z M236.1,98c1.1,0,2-0.9,2-2
			c0-1-0.9-1.9-2-1.9h-3.2V98H236.1z"/>
		<path d="M247.3,92.2c0-0.2,0.2-0.4,0.4-0.4h8.1c0.2,0,0.4,0.2,0.4,0.4v1.6c0,0.2-0.2,0.4-0.4,0.4h-5.9v3.2h4.9
			c0.2,0,0.4,0.2,0.4,0.4v1.6c0,0.2-0.2,0.4-0.4,0.4h-4.9v3.4h5.9c0.2,0,0.4,0.2,0.4,0.4v1.6c0,0.2-0.2,0.4-0.4,0.4h-8.1
			c-0.2,0-0.4-0.2-0.4-0.4V92.2z"/>
		<path d="M262.7,92.2c0-0.2,0.2-0.4,0.4-0.4h1.8c0.2,0,0.4,0.2,0.4,0.4v10.9h5.1c0.2,0,0.4,0.2,0.4,0.4v1.6c0,0.2-0.2,0.4-0.4,0.4
			h-7.3c-0.2,0-0.4-0.2-0.4-0.4V92.2z"/>
		<path d="M276.7,92.2c0-0.2,0.2-0.4,0.4-0.4h1.8c0.2,0,0.4,0.2,0.4,0.4v12.9c0,0.2-0.2,0.4-0.4,0.4h-1.8c-0.2,0-0.4-0.2-0.4-0.4
			V92.2z"/>
		<path d="M286.7,92.2c0-0.2,0.2-0.4,0.4-0.4h8.1c0.2,0,0.4,0.2,0.4,0.4v1.6c0,0.2-0.2,0.4-0.4,0.4h-5.9v3.2h4.9
			c0.2,0,0.4,0.2,0.4,0.4v1.6c0,0.2-0.2,0.4-0.4,0.4h-4.9v3.4h5.9c0.2,0,0.4,0.2,0.4,0.4v1.6c0,0.2-0.2,0.4-0.4,0.4H287
			c-0.2,0-0.4-0.2-0.4-0.4V92.2z"/>
		<path d="M94.6,92.8h-2.1v5.8h1.4v-1.6h0.8c0.9,0,1.6-0.2,2-0.5c0.4-0.3,0.7-0.9,0.7-1.6c0-0.7-0.2-1.2-0.6-1.6
			C96.2,92.9,95.6,92.8,94.6,92.8L94.6,92.8z M94.8,95.8h-0.9v-2h0.8c0.4,0,0.8,0.1,1,0.2c0.2,0.1,0.3,0.4,0.3,0.7
			c0,0.3-0.1,0.6-0.2,0.8C95.5,95.7,95.2,95.8,94.8,95.8L94.8,95.8z"/>
		<path d="M103.5,93.2c-0.4-0.3-1.1-0.5-2-0.5h-2.3v5.8h1.4v-1.9h0.9l1.3,1.9h1.7l-1.5-2.1c0.8-0.3,1.2-0.9,1.2-1.8
			C104.1,94,103.9,93.5,103.5,93.2z M101.6,95.6h-1v-1.7h1c0.4,0,0.7,0.1,0.9,0.2c0.2,0.1,0.3,0.3,0.3,0.6c0,0.3-0.1,0.5-0.3,0.7
			C102.3,95.5,102,95.6,101.6,95.6L101.6,95.6z"/>
		<path d="M106.4,92.8v5.8h4.5v-1.1h-3.1v-1.2h2.7v-1.1h-2.7v-1.2h3v-1.2H106.4z"/>
		<path d="M114.9,93.8c0.6,0,1.1,0.2,1.6,0.6l0.7-0.9c-0.3-0.2-0.7-0.4-1.1-0.6c-0.4-0.1-0.8-0.2-1.2-0.2c-0.6,0-1.1,0.1-1.5,0.4
			c-0.4,0.3-0.6,0.7-0.6,1.3c0,0.6,0.2,1,0.5,1.2c0.3,0.3,0.8,0.5,1.5,0.6c0.4,0.1,0.7,0.2,0.9,0.3c0.2,0.1,0.2,0.2,0.2,0.4
			c0,0.2-0.1,0.3-0.2,0.4c-0.1,0.1-0.3,0.2-0.6,0.2c-0.6,0-1.2-0.3-1.8-0.8l-0.8,0.9c0.8,0.7,1.6,1,2.6,1c0.7,0,1.2-0.2,1.6-0.5
			c0.4-0.3,0.6-0.7,0.6-1.3c0-0.5-0.2-0.9-0.5-1.2c-0.3-0.3-0.8-0.5-1.3-0.6c-0.6-0.1-0.9-0.3-1.1-0.4c-0.2-0.1-0.2-0.2-0.2-0.4
			c0-0.2,0.1-0.3,0.2-0.4C114.5,93.8,114.6,93.8,114.9,93.8L114.9,93.8z"/>
		<path d="M119.3,92.8v5.8h4.5v-1.1h-3.1v-1.2h2.7v-1.1h-2.7v-1.2h3v-1.2H119.3z"/>
		<path d="M130.1,96.5l-3-3.7h-1.3v5.8h1.4v-3.6l2.9,3.6h1.4v-5.8h-1.4V96.5z"/>
		<path d="M138.1,93.9v-1.1h-4.8v1.1h1.7v4.7h1.4v-4.7H138.1z"/>
		<path d="M139.9,92.8v5.8h4.5v-1.1h-3.1v-1.2h2.7v-1.1h-2.7v-1.2h3v-1.2H139.9z"/>
		<path d="M148.6,92.8h-2.1v5.8h2.1c1.2,0,2-0.3,2.6-0.8c0.6-0.5,0.8-1.2,0.8-2.1c0-0.9-0.3-1.6-0.9-2.1
			C150.5,93,149.7,92.8,148.6,92.8L148.6,92.8z M148.7,97.4h-0.9v-3.5h0.8c0.7,0,1.2,0.2,1.5,0.5c0.3,0.3,0.5,0.7,0.5,1.3
			c0,0.6-0.2,1-0.5,1.3C149.7,97.3,149.3,97.4,148.7,97.4L148.7,97.4z"/>
		<path d="M161.5,98c0.3-0.3,0.4-0.7,0.4-1.1c0-0.4-0.1-0.7-0.3-0.9c-0.2-0.2-0.5-0.4-0.9-0.5c0.1,0,0.2-0.1,0.2-0.1
			c0,0,0.1-0.1,0.2-0.1c0.3-0.2,0.5-0.6,0.5-1c0-0.4-0.1-0.7-0.4-1c-0.2-0.2-0.4-0.3-0.7-0.4c-0.3-0.1-0.7-0.1-1.1-0.1h-2.4v5.8h2.7
			C160.6,98.6,161.2,98.4,161.5,98L161.5,98z M158.5,93.9h0.6c0.4,0,0.7,0,0.8,0.1c0.2,0.1,0.3,0.3,0.3,0.5c0,0.3-0.1,0.4-0.3,0.5
			c-0.2,0.1-0.5,0.1-0.8,0.1h-0.6V93.9z M158.5,96.1h0.8c0.5,0,0.8,0,1,0.1c0.2,0.1,0.3,0.3,0.3,0.5c0,0.3-0.1,0.4-0.3,0.5
			c-0.2,0.1-0.5,0.1-0.9,0.1h-0.9V96.1z"/>
		<path d="M166.4,96.3l2.1-3.5H167l-1.3,2.2l-1.3-2.2h-1.5l2.1,3.5v2.3h1.4V96.3z"/>
	</g>
</g>
</svg>
