<?xml version="1.0" encoding="utf-8"?>
<!-- Generator: Adobe Illustrator 20.0.0, SVG Export Plug-In . SVG Version: 6.00 Build 0)  -->
<svg version="1.1" id="Ebene_1" xmlns="http://www.w3.org/2000/svg" xmlns:xlink="http://www.w3.org/1999/xlink" x="0px" y="0px"
	 viewBox="0 0 236 236" style="enable-background:new 0 0 236 236;" xml:space="preserve">
<style type="text/css">
	.st0{fill:#4AB6A1;}
	.st1{fill:#EF847A;}
	.st2{fill:#F4F4F4;}
	.st3{fill:#F4F4F4;stroke:#4AB6A1;stroke-width:1.8018;stroke-miterlimit:10;}
	.st4{fill:#663E7F;}
	.st5{fill:#09D0AD;}
	.st6{fill:#FFFFFF;}
	.st7{fill:#311A42;}
	.st8{fill:#E77AAD;}
	.st9{fill:#D4E1F2;}
	.st10{fill:#00A3A5;}
	.st11{fill:#FF75C3;}
	.st12{fill:#08D0AC;}
	.st13{fill:#663D7E;}
	.st14{fill:#471E5F;}
	.st15{fill:#DEBAD2;}
	.st16{fill:#D5E2F3;}
	.st17{fill:#5B5B5B;}
	.st18{fill-rule:evenodd;clip-rule:evenodd;fill:#FF75C3;}
	.st19{fill:none;stroke:#FF75C3;stroke-width:4;}
	.st20{fill:#3D1800;}
	.st21{fill:#BBD1D4;}
	.st22{fill:#F5D2CD;}
	.st23{fill:#5C5C5C;}
	.st24{fill:#C7CAC7;}
	.st25{fill:#232323;}
	.st26{fill:#FF8879;}
	.st27{fill:#AAAAAA;}
	.st28{fill:#FCEAEA;}
	.st29{fill:#F5D3CD;}
	.st30{fill:#FF8779;}
	.st31{fill:#D4E1F3;}
	.st32{fill:#EBEBEB;}
	.st33{fill:#FFE65D;}
	.st34{fill:#FFC4BD;}
</style>
<circle class="st6" cx="118" cy="118" r="118"/>
<path id="Form_7" class="st11" d="M117.5,16C60.9,16,15,61.9,15,118.5S60.9,221,117.5,221c56.6,0,102.5-45.9,102.5-102.5
	C220,61.9,174.1,16,117.5,16L117.5,16z M213.6,118.5c0,3.4-0.2,6.8-0.6,10.2c0.7-6.8,0.7-13.6,0-20.4
	C213.4,111.7,213.6,115.1,213.6,118.5L213.6,118.5z M212.8,106.9c-0.4-2.9-0.8-5.8-1.4-8.6C212,101.1,212.5,104,212.8,106.9
	L212.8,106.9z M211.3,97.7c-1.4-6.3-3.4-12.4-6.1-18.3C207.8,85.3,209.9,91.4,211.3,97.7L211.3,97.7z M205.2,79.4l-40.6,18.9
	c-5.2-12.1-14.8-21.7-26.9-26.9l18.9-40.6C178.2,40.5,195.5,57.8,205.2,79.4L205.2,79.4z M162.3,118.5c0,24.8-20.1,44.8-44.9,44.8
	c-24.8,0-44.8-20.1-44.8-44.9c0-24.8,20.1-44.8,44.9-44.8c18,0,34.3,10.8,41.3,27.4C161.1,106.5,162.4,112.5,162.3,118.5
	L162.3,118.5z M129.1,23.2c2.9,0.4,5.8,0.8,8.6,1.4C134.9,24,132,23.5,129.1,23.2L129.1,23.2z M138.3,24.7
	c6.3,1.4,12.5,3.4,18.4,6.1C150.7,28.2,144.6,26.1,138.3,24.7L138.3,24.7z M127.7,23c-6.8-0.7-13.6-0.7-20.4,0
	C114.1,22.2,120.9,22.2,127.7,23L127.7,23z M105.9,23.2c-2.9,0.4-5.8,0.8-8.6,1.4C100.1,24,103,23.5,105.9,23.2L105.9,23.2z
	 M96.7,24.7c-6.3,1.4-12.4,3.4-18.3,6C84.3,28.1,90.4,26.1,96.7,24.7L96.7,24.7z M78.4,30.8l18.9,40.6
	c-12.1,5.2-21.7,14.8-26.9,26.9L29.8,79.4c-2.6,5.9-4.7,12.1-6.1,18.4C30.3,68,50.6,43.2,78.4,30.8L78.4,30.8z M22,108.3
	c-0.7,6.8-0.7,13.6,0,20.4C21.2,121.9,21.2,115.1,22,108.3L22,108.3z M23.6,98.3c-0.6,2.8-1.1,5.7-1.4,8.6
	C22.5,104,23,101.1,23.6,98.3L23.6,98.3z M29.8,157.6c-2.6-5.9-4.7-12.1-6.1-18.4C25.1,145.6,27.2,151.7,29.8,157.6L29.8,157.6z
	 M23.6,138.7c-0.6-2.8-1.1-5.7-1.4-8.6C22.5,133,23,135.9,23.6,138.7L23.6,138.7z M29.8,157.6l40.6-18.9
	c5.2,12.1,14.8,21.7,26.9,26.9l-18.9,40.6C56.8,196.5,39.5,179.2,29.8,157.6L29.8,157.6L29.8,157.6z M105.9,213.8
	c-2.9-0.4-5.8-0.8-8.6-1.4C100.1,213,103,213.5,105.9,213.8L105.9,213.8z M96.7,212.3c-6.3-1.4-12.4-3.4-18.3-6
	C84.3,208.8,90.4,210.9,96.7,212.3L96.7,212.3z M107.3,214c6.8,0.7,13.6,0.7,20.4,0C120.9,214.8,114.1,214.8,107.3,214L107.3,214z
	 M129.1,213.8c2.9-0.4,5.8-0.8,8.6-1.4C134.9,213,132,213.5,129.1,213.8L129.1,213.8z M138.4,212.3c3.1-0.7,6.1-1.5,9.1-2.5
	C144.5,210.7,141.4,211.6,138.4,212.3L138.4,212.3z M147.5,209.7c3.1-1,6.1-2.2,9.1-3.5C153.6,207.6,150.6,208.7,147.5,209.7
	L147.5,209.7z M156.6,206.2l-18.9-40.6c12.1-5.2,21.7-14.8,26.9-26.9l40.6,18.9C195.5,179.2,178.2,196.5,156.6,206.2L156.6,206.2z
	 M212.8,130.1c-0.4,2.9-0.8,5.8-1.4,8.6C212,135.9,212.5,133,212.8,130.1L212.8,130.1z M211.3,139.3c-1.4,6.3-3.4,12.5-6.1,18.4
	C207.8,151.7,209.9,145.6,211.3,139.3L211.3,139.3z"/>
<path id="Form_8" class="st5" d="M123.8,109c-2.9,2.9-7.6,2.9-10.5,0.1c0,0,0,0-0.1-0.1c-3.9-0.1-7.1,3-7.2,6.9c0,1,0.2,2,0.5,3
	c0.2,0.5,0.3,0.9,0.6,1.3c3.1,6,11.4,9.9,11.4,9.9s8.4-3.9,11.4-9.9c0.2-0.4,0.4-0.9,0.6-1.3c0.3-0.9,0.5-1.9,0.5-3
	C130.9,112,127.7,108.9,123.8,109C123.8,109,123.8,109,123.8,109z"/>
</svg>
