<?xml version="1.0" encoding="utf-8"?>
<!-- Generator: Adobe Illustrator 20.0.0, SVG Export Plug-In . SVG Version: 6.00 Build 0)  -->
<svg version="1.1" id="Ebene_1" xmlns="http://www.w3.org/2000/svg" xmlns:xlink="http://www.w3.org/1999/xlink" x="0px" y="0px"
	 viewBox="0 0 268.1 268.1" style="enable-background:new 0 0 268.1 268.1;" xml:space="preserve">
<style type="text/css">
	.st0{fill:#4AB6A1;}
	.st1{fill:#EF847A;}
	.st2{fill:#F4F4F4;}
	.st3{fill:#F4F4F4;stroke:#4AB6A1;stroke-width:1.8018;stroke-miterlimit:10;}
	.st4{fill:#663E7F;}
	.st5{fill:#09D0AD;}
	.st6{fill:#FFFFFF;}
	.st7{fill:#311A42;}
	.st8{fill:#E77AAD;}
	.st9{fill:#D4E1F2;}
	.st10{fill:#00A3A5;}
	.st11{fill:#FF75C3;}
	.st12{fill:#08D0AC;}
	.st13{fill:#663D7E;}
	.st14{fill:#471E5F;}
	.st15{fill:#DEBAD2;}
	.st16{fill:#D5E2F3;}
	.st17{fill:#5B5B5B;}
	.st18{fill-rule:evenodd;clip-rule:evenodd;fill:#FF75C3;}
	.st19{fill:none;stroke:#FF75C3;stroke-width:4;}
	.st20{fill:#3D1800;}
	.st21{fill:#BBD1D4;}
	.st22{fill:#F5D2CD;}
	.st23{fill:#5C5C5C;}
	.st24{fill:#C7CAC7;}
	.st25{fill:#232323;}
	.st26{fill:#FF8879;}
	.st27{fill:#AAAAAA;}
	.st28{fill:#FCEAEA;}
	.st29{fill:#F5D3CD;}
	.st30{fill:#FF8779;}
	.st31{fill:#D4E1F3;}
	.st32{fill:#EBEBEB;}
	.st33{fill:#FFE65D;}
	.st34{fill:#FFC4BD;}
</style>
<g>
	<path class="st17" d="M109,90.3c-2.5,0-4.5-2-4.5-4.5v-8.5c0-10-8.1-18.2-18.2-18.2c-10,0-18.2,8.2-18.2,18.2v8.5
		c0,2.5-2,4.5-4.5,4.5c-2.5,0-4.5-2-4.5-4.5v-8.5c0-15,12.3-27.3,27.3-27.3c15,0,27.3,12.2,27.3,27.3v8.5
		C113.6,88.2,111.6,90.3,109,90.3L109,90.3z M109,90.3"/>
	<path class="st24" d="M249.9,5.1C230.1-8,209,6.1,209,25v206.7h18.2V25c0-3.8,3.1-6.8,6.8-6.8c3.8,0,6.8,3.1,6.8,6.8v15.9H259V22.2
		C259,15.4,255.7,8.8,249.9,5.1L249.9,5.1z M249.9,5.1"/>
	<rect x="18.2" y="218.1" class="st25" width="18.2" height="45.4"/>
	<rect x="136.3" y="218.1" class="st25" width="18.2" height="45.4"/>
	<path class="st11" d="M86.3,81.8c-37.6,0-68.2,30.5-68.2,68.2v68.2h18.2v36.4h100v-36.4h18.2v-68.2C154.5,112.3,124,81.8,86.3,81.8
		L86.3,81.8z M86.3,81.8"/>
	<path class="st16" d="M118.1,245.3H54.5c-2.5,0-4.5-2-4.5-4.5c0-2.5,2-4.5,4.5-4.5h63.6c2.5,0,4.5,2,4.5,4.5
		C122.7,243.3,120.6,245.3,118.1,245.3L118.1,245.3z M118.1,245.3"/>
	<path class="st16" d="M118.1,227.2H54.5c-2.5,0-4.5-2-4.5-4.5c0-2.5,2-4.5,4.5-4.5h63.6c2.5,0,4.5,2,4.5,4.5
		C122.7,225.1,120.6,227.2,118.1,227.2L118.1,227.2z M118.1,227.2"/>
	<path class="st16" d="M127.2,149.9c0,25.1-18.3,45.4-40.9,45.4c-22.6,0-40.9-20.3-40.9-45.4s18.3-45.4,40.9-45.4
		C108.9,104.5,127.2,124.8,127.2,149.9L127.2,149.9z M127.2,149.9"/>
	<path class="st26" d="M100,136.3c0,7.5-6.1,13.6-13.6,13.6c-7.5,0-13.6-6.1-13.6-13.6c0-7.5,6.1-13.6,13.6-13.6
		C93.9,122.7,100,128.8,100,136.3L100,136.3z M100,136.3"/>
	<rect x="181.7" y="249.9" class="st17" width="72.7" height="13.6"/>
	<rect x="199.9" y="231.7" class="st25" width="36.4" height="18.2"/>
	<rect x="209" y="136.3" class="st27" width="18.2" height="18.2"/>
	<path class="st17" d="M18.2,149.9c0-7.9,1.4-15.6,4-22.7C9,134.1,0,147.8,0,163.6c0,14.2,7.2,26.7,18.2,34V149.9z M18.2,149.9"/>
	<g>
		<g>
			<path class="st25" d="M263.5,268.1h-90.9c-2.5,0-4.5-2-4.5-4.5c0-2.5,2-4.5,4.5-4.5h90.9c2.5,0,4.5,2,4.5,4.5
				C268.1,266,266,268.1,263.5,268.1z"/>
		</g>
	</g>
	<path class="st17" d="M240.8,51.4c0,13.6-4.9,26.7-13.6,36.9v26l15.1-15.1C253,88.6,259,74,259,58.9v-18h-18.2V51.4z M240.8,51.4"
		/>
	<path class="st17" d="M154.5,161.4v25.7l54.5-54.5v-25.7L154.5,161.4z M154.5,161.4"/>
</g>
</svg>
