<?xml version="1.0" encoding="utf-8"?>
<!-- Generator: Adobe Illustrator 20.0.0, SVG Export Plug-In . SVG Version: 6.00 Build 0)  -->
<svg version="1.1" id="Ebene_1" xmlns="http://www.w3.org/2000/svg" xmlns:xlink="http://www.w3.org/1999/xlink" x="0px" y="0px"
	 viewBox="0 0 279.9 262.1" style="enable-background:new 0 0 279.9 262.1;" xml:space="preserve">
<style type="text/css">
	.st0{fill:#4AB6A1;}
	.st1{fill:#EF847A;}
	.st2{fill:#F4F4F4;}
	.st3{fill:#F4F4F4;stroke:#4AB6A1;stroke-width:1.8018;stroke-miterlimit:10;}
	.st4{fill:#663E7F;}
	.st5{fill:#09D0AD;}
	.st6{fill:#FFFFFF;}
	.st7{fill:#311A42;}
	.st8{fill:#E77AAD;}
	.st9{fill:#D4E1F2;}
	.st10{fill:#00A3A5;}
	.st11{fill:#FF75C3;}
	.st12{fill:#08D0AC;}
	.st13{fill:#663D7E;}
	.st14{fill:#471E5F;}
	.st15{fill:#DEBAD2;}
	.st16{fill:#D5E2F3;}
	.st17{fill:#5B5B5B;}
	.st18{fill-rule:evenodd;clip-rule:evenodd;fill:#FF75C3;}
	.st19{fill:none;stroke:#FF75C3;stroke-width:4;}
	.st20{fill:#3D1800;}
	.st21{fill:#BBD1D4;}
	.st22{fill:#F5D2CD;}
	.st23{fill:#5C5C5C;}
	.st24{fill:#C7CAC7;}
	.st25{fill:#232323;}
	.st26{fill:#FF8879;}
	.st27{fill:#AAAAAA;}
	.st28{fill:#FCEAEA;}
	.st29{fill:#F5D3CD;}
	.st30{fill:#FF8779;}
	.st31{fill:#D4E1F3;}
	.st32{fill:#EBEBEB;}
	.st33{fill:#FFE65D;}
	.st34{fill:#FFC4BD;}
</style>
<g>
	<path id="Form_4" class="st17" d="M277.9,88.2c-5.9-17.4-23.9-28.4-45.3-30l-8.8-25.6c-1.8-5.1-7.3-7.8-12.5-6.1l-16.1,5.2
		C190.2,8.8,167.3,0,139.8,0c-27,0-49.6,8.5-55.3,30.3l-11.9-3.9c-5.1-1.7-10.6,1-12.5,6.1l-8.8,25.6C29.8,59.8,11.9,70.8,6,88.2
		c-8.6,25.2,11.2,54.2,44.3,64.8s66.8-1.1,75.4-26.3c6-17.6-1.9-37.1-18.6-50.9l8.7-25.4c1.7-5-1.1-10.4-6.1-12
		c-0.1,0-0.1,0-0.2-0.1L92.7,33c4.5-18.7,23.8-24.6,47-24.6c23.8,0,43.4,6.1,47.3,25.9l-12.6,4.1c-5,1.5-7.9,6.8-6.3,11.9
		c0,0.1,0,0.1,0.1,0.2l8.6,25.4c-16.6,13.8-24.6,33.3-18.6,50.9c8.6,25.2,42.3,36.9,75.4,26.3S286.5,113.4,277.9,88.2z M78.5,50.5
		c1.1-3.2,4.6-4.8,7.8-3.6c0.7,0.3,1.4,0.6,1.9,1.1c0,0,0,0,0,0c0,0,0,0,0,0c1.8,1.5,2.4,3.9,1.7,6.1c-0.7,2-2.3,3.4-4.4,3.8
		c-0.1,0.2-0.1,0.4-0.2,0.6c-1,3-3.2,5.1-4.9,4.6h0c-1.6-0.5-2.1-3.4-1.1-6.5c0.1-0.2,0.2-0.4,0.2-0.6
		C78.2,54.6,77.8,52.4,78.5,50.5z M108,121c-6.1,17.7-29.8,26-53.1,18.5s-37.3-27.9-31.2-45.7s29.8-26,53.1-18.5S114,103.3,108,121z
		 M195.7,48C195.7,48,195.7,48,195.7,48C195.7,48,195.7,48,195.7,48c2.5-2.2,6.4-2,8.6,0.5c0.5,0.6,0.9,1.2,1.1,1.9
		c0.7,1.9,0.2,4.1-1.1,5.6c0.1,0.2,0.1,0.4,0.2,0.6c1,3.1,0.6,6-1.1,6.5h0c-1.6,0.5-3.8-1.5-4.8-4.6c-0.1-0.2-0.1-0.4-0.2-0.6
		c-2-0.4-3.7-1.9-4.4-3.8C193.3,52,193.9,49.5,195.7,48z M229,139.6c-23.3,7.5-47.1-0.8-53.1-18.5s7.9-38.2,31.2-45.7
		s47.1,0.8,53.1,18.5S252.3,132.1,229,139.6z"/>
	<path id="Form_5" class="st11" d="M158.1,145.8c26-26,68.1-26.1,94.2-0.1c24.3,24.3,26.2,63,4.3,89.5c2.1,4.3,5.6,9.3,10.7,11.8
		c2.4,1.2,3.8,3.8,3.4,6.5c-0.4,2.7-2.5,4.8-5.2,5.2c-1.7,0.3-3.5,0.4-5.3,0.4c-8.4,0-16.7-2.8-23.4-7.8
		c-32.3,17.5-72.7,5.5-90.2-26.8C132.6,198.7,137.3,166.6,158.1,145.8L158.1,145.8L158.1,145.8z M163.5,234.5
		c19,19,48.5,22.7,71.6,9.2c1.5-0.9,3.4-0.6,4.6,0.6c0.1,0.1,0.2,0.1,0.3,0.2c5.7,4.6,12.8,7.1,20.1,7.1h0
		c-5.7-4.2-9.3-10.3-11.4-15.1c-0.5-1.6-0.3-3.3,0.7-4.6c21.5-24.4,19.2-61.7-5.2-83.2c-24.4-21.5-61.7-19.2-83.2,5.2
		C140.5,177.2,141.6,212.5,163.5,234.5L163.5,234.5L163.5,234.5z M179.9,130l-16,8l11,10l17-8L179.9,130z"/>
	<path id="_" class="st11" d="M195.6,203.3h17.2l2.6-44.4h-22.7L195.6,203.3z M193,219.5c0,6.2,5.1,11.2,11.3,11.2
		s11.2-5.1,11.2-11.3c0-6.2-5.1-11.2-11.2-11.2C198,208.2,193,213.3,193,219.5z"/>
	<path id="Form_5_Kopie" class="st5" d="M113.7,148.5c-26-26-68.1-26.1-94.2-0.1c-24.3,24.3-26.2,63-4.3,89.5
		c-2.1,4.3-5.6,9.3-10.7,11.8c-3.1,1.5-4.4,5.3-2.8,8.3c0.9,1.8,2.6,3.1,4.6,3.4c1.7,0.3,3.5,0.4,5.3,0.4c8.4,0,16.7-2.7,23.4-7.8
		c32.3,17.5,72.7,5.5,90.2-26.8C139.3,201.4,134.6,169.3,113.7,148.5L113.7,148.5L113.7,148.5z M108.3,237.2
		c-19,19-48.5,22.7-71.6,9.2c-1.5-0.9-3.4-0.6-4.6,0.6c-0.1,0.1-0.2,0.1-0.3,0.2c-5.7,4.6-12.8,7.1-20.1,7.1h0
		c5.7-4.2,9.3-10.3,11.4-15.1c0.5-1.6,0.3-3.3-0.7-4.6c-21.5-24.4-19.2-61.7,5.2-83.2c24.4-21.5,61.7-19.2,83.2,5.2
		C131.3,179.8,130.3,215.1,108.3,237.2L108.3,237.2L108.3,237.2z M99.9,134l-19,8l18,11l16-9L99.9,134z"/>
	<path id="_2" class="st5" d="M57.3,198.4c-0.1,3.6,0.9,7.1,2.9,10.1l16.8-3.8c-0.8-1.2-1.2-2.5-1.2-3.9c0-3,2.5-4.9,5.5-7.1
		c4.4-3.3,9.6-7.3,9.6-16.1c0-10.5-9-17-23.3-17c-8.3,0-17.4,3.1-23.6,9.6l11.9,13.7c2.6-2.8,6.5-4.4,9.2-4.4c3.3,0,4.1,0.9,4.1,2.2
		c0,1.2-1.4,2.1-3.3,3.4C62.4,187.4,57.3,190.9,57.3,198.4z M56.8,222.2c0,6.3,5,11.4,11.3,11.4c6.3,0,11.4-5,11.4-11.3
		s-5-11.4-11.3-11.4c0,0,0,0,0,0C61.9,210.9,56.9,215.9,56.8,222.2z"/>
</g>
</svg>
