<?xml version="1.0" encoding="utf-8"?>
<!-- Generator: Adobe Illustrator 20.0.0, SVG Export Plug-In . SVG Version: 6.00 Build 0)  -->
<svg version="1.1" id="Ebene_1" xmlns="http://www.w3.org/2000/svg" xmlns:xlink="http://www.w3.org/1999/xlink" x="0px" y="0px"
	 viewBox="0 0 304.8 304.8" style="enable-background:new 0 0 304.8 304.8;" xml:space="preserve">
<style type="text/css">
	.st0{fill:#4AB6A1;}
	.st1{fill:#EF847A;}
	.st2{fill:#F4F4F4;}
	.st3{fill:#F4F4F4;stroke:#4AB6A1;stroke-width:1.8018;stroke-miterlimit:10;}
	.st4{fill:#663E7F;}
	.st5{fill:#09D0AD;}
	.st6{fill:#FFFFFF;}
	.st7{fill:#311A42;}
	.st8{fill:#E77AAD;}
	.st9{fill:#D4E1F2;}
	.st10{fill:#00A3A5;}
	.st11{fill:#FF75C3;}
	.st12{fill:#08D0AC;}
	.st13{fill:#663D7E;}
	.st14{fill:#471E5F;}
	.st15{fill:#DEBAD2;}
	.st16{fill:#D5E2F3;}
	.st17{fill:#5B5B5B;}
	.st18{fill-rule:evenodd;clip-rule:evenodd;fill:#FF75C3;}
	.st19{fill:none;stroke:#FF75C3;stroke-width:4;}
	.st20{fill:#3D1800;}
	.st21{fill:#BBD1D4;}
	.st22{fill:#F5D2CD;}
	.st23{fill:#5C5C5C;}
	.st24{fill:#C7CAC7;}
	.st25{fill:#232323;}
	.st26{fill:#FF8879;}
	.st27{fill:#AAAAAA;}
	.st28{fill:#FCEAEA;}
	.st29{fill:#F5D3CD;}
	.st30{fill:#FF8779;}
	.st31{fill:#D4E1F3;}
	.st32{fill:#EBEBEB;}
	.st33{fill:#FFE65D;}
	.st34{fill:#FFC4BD;}
</style>
<g>
	<g>
		<path class="st5" d="M304.8,152.4C304.8,68.6,236.2,0,152.4,0C68.6,0,0,68.6,0,152.4c0,34.3,10.2,66,30.5,91.4
			c1.2,1.3,1.2,2.6,1.2,3.9c0,3.8-2.5,6.3-6.3,6.3H12.7C5.1,254,0,259.1,0,266.7v25.4c0,7.6,5.1,12.7,12.7,12.7h101.6
			c7.6,0,12.7-5.1,12.7-12.7V190.5c0-7.6-5.1-12.7-12.7-12.7H88.9c-7.6,0-12.7,5.1-12.7,12.7v10.2c0,1.2,0,3.8-2.5,5.1
			c-3.9,1.2-7.6,0-8.9-2.5c-8.9-15.3-14-33.1-14-50.8c0-55.9,45.7-101.6,101.6-101.6c55.9,0,101.6,45.7,101.6,101.6
			c0,39.4-24.5,74.4-58.7,90.9c15.5,6.3,25.8,24.1,25.7,44.6C270.5,263.1,304.8,212,304.8,152.4z"/>
		<path class="st22" d="M195.3,243.3c-3.2,1.6-6.5,3.2-9.9,4.4c-0.7,0.2-1.2,0.5-1.7,0.8c-11.4,2.7-19.9,12.8-19.9,25
			c0,4.1,1,7.8,2.7,11.3l1.3-0.9c1.9-1.3,4.5-0.9,5.8,1c1.3,1.9,0.9,4.5-1,5.8l-1.3,0.9c4.7,4.7,11.1,7.7,18.3,7.7
			c4.4,0,8.4-1.2,12.1-3.1c6.7-2.3,13.2-5,19.4-8.2C221.1,267.3,210.8,249.6,195.3,243.3z"/>
		<path class="st23" d="M173.6,284.8c-1.3-1.9-3.9-2.3-5.8-1l-1.3,0.9c1.2,2.5,2.8,4.8,4.7,6.8l1.3-0.9
			C174.4,289.3,174.9,286.7,173.6,284.8z"/>
	</g>
	<g>
		<g>
			<path d="M102.7,119.2V97.7H92.6V119c0,2.4-1.5,3.8-3.7,3.8c-1.7,0-3.2-0.8-4.3-1.5l-4.1,7.7c2.6,2,6.1,2.7,9.3,2.7
				C97.5,131.7,102.7,127.7,102.7,119.2z M133.4,122.7h-15.2v-4.3H133V110h-14.9v-3.9h15.2v-8.4h-25.3v33.4h25.3V122.7z
				 M171.1,114.4c0-10.7-7.8-16.7-18.3-16.7h-14.9v33.4h15C163.3,131.1,171.1,125,171.1,114.4z M148,122.3v-15.8h4.9
				c5.4,0,8,3.4,8,7.9c0,4.2-3,7.9-8.1,7.9H148z M174.7,131.1H200v-8.4h-15.2v-4.3h14.9V110h-14.9v-3.9H200v-8.4h-25.3V131.1z
				 M214.6,120.4h3.7l4.6,10.7h11.5l-6.1-11.8c2.7-1.3,6-4.4,6-10.1c0-6.3-4.2-11.5-12-11.5h-17.8v33.4h10.1V120.4z M214.6,106.1
				h6.2c1.7,0,3.3,1.1,3.3,2.9c0,1.9-1.6,3-3.3,3h-6.2V106.1z M166,161.9h-3.9v-19.2h-14L136,163v7.8H152v5.4h10.1v-5.4h3.9V161.9z
				 M152,161.9h-6.3l6.3-10.5V161.9z M168.6,171.3c0,2.9,2.5,5.4,5.4,5.4c2.9,0,5.4-2.5,5.4-5.4c0-2.9-2.5-5.4-5.4-5.4
				C171,166,168.6,168.4,168.6,171.3z M102.8,204.7l-5.9-17H83v33.4h10.1V200l7.5,21.1h4.5l7.5-21.1v21.1h10.1v-33.4h-14
				L102.8,204.7z M136.7,187.7l-12.3,33.4h11l1.3-4.3h12.8l1.3,4.3h11l-12.3-33.4H136.7z M139.3,208.4l3.8-11.8l3.8,11.8H139.3z
				 M185.5,204.5l-11.6-16.8h-10.4v33.4h10.1v-17.9l12.3,17.9h9.7v-33.4h-10.1V204.5z M223,204.5l-11.6-16.8H201v33.4h10.1v-17.9
				l12.3,17.9h9.7v-33.4H223V204.5z"/>
		</g>
	</g>
</g>
</svg>
