<?xml version="1.0" encoding="utf-8"?>
<!-- Generator: Adobe Illustrator 20.0.0, SVG Export Plug-In . SVG Version: 6.00 Build 0)  -->
<svg version="1.1" id="Ebene_1" xmlns="http://www.w3.org/2000/svg" xmlns:xlink="http://www.w3.org/1999/xlink" x="0px" y="0px"
	 viewBox="0 0 310.8 461.1" style="enable-background:new 0 0 310.8 461.1;" xml:space="preserve">
<style type="text/css">
	.st0{fill:#4AB6A1;}
	.st1{fill:#EF847A;}
	.st2{fill:#F4F4F4;}
	.st3{fill:#F4F4F4;stroke:#4AB6A1;stroke-width:1.8018;stroke-miterlimit:10;}
	.st4{fill:#663E7F;}
	.st5{fill:#09D0AD;}
	.st6{fill:#FFFFFF;}
	.st7{fill:#311A42;}
	.st8{fill:#E77AAD;}
	.st9{fill:#D4E1F2;}
	.st10{fill:#00A3A5;}
	.st11{fill:#FF75C3;}
	.st12{fill:#08D0AC;}
	.st13{fill:#663D7E;}
	.st14{fill:#471E5F;}
	.st15{fill:#DEBAD2;}
	.st16{fill:#D5E2F3;}
	.st17{fill:#5B5B5B;}
	.st18{fill-rule:evenodd;clip-rule:evenodd;fill:#FF75C3;}
	.st19{fill:none;stroke:#FF75C3;stroke-width:4;}
	.st20{fill:#3D1800;}
	.st21{fill:#BBD1D4;}
	.st22{fill:#F5D2CD;}
	.st23{fill:#5C5C5C;}
	.st24{fill:#C7CAC7;}
	.st25{fill:#232323;}
	.st26{fill:#FF8879;}
	.st27{fill:#AAAAAA;}
	.st28{fill:#FCEAEA;}
	.st29{fill:#F5D3CD;}
	.st30{fill:#FF8779;}
	.st31{fill:#D4E1F3;}
	.st32{fill:#EBEBEB;}
	.st33{fill:#FFE65D;}
	.st34{fill:#FFC4BD;}
</style>
<g>
	<path id="Forma_1_Kopie_4" class="st21" d="M297.8,393.1V223c-0.1-15-8.5-28.6-21.8-35.4v-10.1c-0.1-10.3-8.5-18.5-18.7-18.4
		c-10.1,0.1-18.3,8.3-18.4,18.4v10.1c-13.3,6.8-21.8,20.4-21.8,35.4v170.1c-7.2,0-13,5.8-13,13s5.8,13,13,13h80.8
		c7.2,0,13-5.8,13-13C310.8,398.9,305,393.1,297.8,393.1L297.8,393.1z"/>
	<path id="Forma_1_Kopie_5" class="st21" d="M93.8,393.1V223c-0.1-15-8.5-28.6-21.8-35.4v-10.1c-0.1-10.3-8.5-18.5-18.7-18.4
		c-10.1,0.1-18.3,8.3-18.4,18.4v10.1C21.5,194.4,13.1,208.1,13,223v170.1c-7.2,0-13,5.8-13,13s5.8,13,13,13h80.8c7.2,0,13-5.8,13-13
		C106.8,398.9,101,393.1,93.8,393.1L93.8,393.1z"/>
	<path id="Forma_1_1_" class="st5" d="M226.8,415V113.5c0-27.4-15.8-50.9-38.6-62.8V32.8c0-18.1-14.7-32.8-32.8-32.8
		c-18.1,0-32.8,14.7-32.8,32.8v17.9C99.8,62.5,84,86,84,113.5V415c-12.7,0-23.1,10.3-23.1,23s10.3,23.1,23,23.1c0,0,0,0,0,0h142.7
		c12.7,0,23.1-10.3,23.1-23C249.8,425.3,239.5,415,226.8,415z"/>
</g>
</svg>
