<?xml version="1.0" encoding="utf-8"?>
<!-- Generator: Adobe Illustrator 20.0.0, SVG Export Plug-In . SVG Version: 6.00 Build 0)  -->
<svg version="1.1" id="Ebene_1" xmlns="http://www.w3.org/2000/svg" xmlns:xlink="http://www.w3.org/1999/xlink" x="0px" y="0px"
	 viewBox="0 0 296 222" style="enable-background:new 0 0 296 222;" xml:space="preserve">
<style type="text/css">
	.st0{fill:#4AB6A1;}
	.st1{fill:#EF847A;}
	.st2{fill:#F4F4F4;}
	.st3{fill:#F4F4F4;stroke:#4AB6A1;stroke-width:1.8018;stroke-miterlimit:10;}
	.st4{fill:#663E7F;}
	.st5{fill:#09D0AD;}
	.st6{fill:#FFFFFF;}
	.st7{fill:#311A42;}
	.st8{fill:#E77AAD;}
	.st9{fill:#D4E1F2;}
	.st10{fill:#00A3A5;}
	.st11{fill:#FF75C3;}
	.st12{fill:#08D0AC;}
	.st13{fill:#663D7E;}
	.st14{fill:#471E5F;}
	.st15{fill:#DEBAD2;}
	.st16{fill:#D5E2F3;}
	.st17{fill:#5B5B5B;}
	.st18{fill-rule:evenodd;clip-rule:evenodd;fill:#FF75C3;}
	.st19{fill:none;stroke:#FF75C3;stroke-width:4;}
	.st20{fill:#3D1800;}
	.st21{fill:#BBD1D4;}
	.st22{fill:#F5D2CD;}
	.st23{fill:#5C5C5C;}
	.st24{fill:#C7CAC7;}
	.st25{fill:#232323;}
	.st26{fill:#FF8879;}
	.st27{fill:#AAAAAA;}
	.st28{fill:#FCEAEA;}
	.st29{fill:#F5D3CD;}
	.st30{fill:#FF8779;}
	.st31{fill:#D4E1F3;}
	.st32{fill:#EBEBEB;}
	.st33{fill:#FFE65D;}
	.st34{fill:#FFC4BD;}
</style>
<g>
	<path id="Forma_1" class="st11" d="M207.6,128.8H21.9c-1,0-1.9,0.8-1.9,1.9v6.8c0,1,0.8,1.9,1.9,1.9h5.2v14.2
		c0,0.6,0.3,1.1,0.7,1.4c-0.5,0.9-0.7,1.9-0.7,2.8c2.3,2.4,2.3,6.2,0,8.6c0,1.7,0.7,3.2,1.9,4.4c-1.2,1.8-2.5,3.8-2.1,9.8
		c0.1,2.4,0.5,4.8,1,7.9c0.7,4.2,1.5,9.3,2.2,16.9c-2.9,1.8-3.8,5.6-2,8.5c0.7,1.1,1.7,2,2.9,2.5l0.3,3.8c0.1,1,0.9,1.7,1.9,1.7h5.6
		c1,0,1.8-0.7,1.9-1.7c0,0,0.1-1.4,0.3-3.8c3.2-1.3,4.7-4.9,3.4-8c-0.5-1.2-1.4-2.2-2.5-2.9c0.7-7.6,1.5-12.7,2.2-16.9
		c0.5-3.1,0.9-5.6,1-7.9c0.4-6-0.9-8-2.1-9.8c-1.1-4.4-0.4-9,1.9-13c0-1-0.2-2-0.7-2.8c0.4-0.3,0.7-0.9,0.7-1.4v-2.5h43.6l25.6,10.3
		c0.2,0.1,0.5,0.2,0.7,0.1c0.2,0,0.5,0,0.7-0.1l25.6-10.3h43.6v2.5c0,0.6,0.3,1.1,0.7,1.4c-1.2,2.4-0.8,5.2,1.1,7.1
		c-2.4,2.4-2.3,6.3,0.1,8.7c-1.2,1.8-2.5,3.8-2.1,9.8c0.1,2.3,0.5,4.8,1,7.9c0.7,4.2,1.5,9.3,2.2,16.9c-2.9,1.8-3.8,5.6-2,8.5
		c0.7,1.1,1.7,2,2.9,2.5c0.2,2.4,0.3,3.8,0.3,3.8c0.1,1,0.9,1.7,1.9,1.7h5.6c1,0,1.8-0.7,1.9-1.7l0.3-3.8c3.2-1.3,4.7-4.9,3.4-8
		c-0.5-1.2-1.4-2.2-2.5-2.9c0.7-7.6,1.5-12.7,2.2-16.9c0.5-3.1,0.9-5.6,1-7.9c0.4-6-0.9-8-2.1-9.8c-1.1-4.4-0.4-9,1.9-13
		c0-1-0.2-2-0.7-2.8c0.4-0.3,0.7-0.9,0.7-1.4v-14.2h5.2c1,0,1.9-0.8,1.9-1.9v-6.8C209.5,129.7,208.6,128.8,207.6,128.8
		C207.6,128.8,207.6,128.8,207.6,128.8z M41.3,180.5c-0.1,2.2-0.5,4.6-1,7.6c-0.7,4.3-1.6,10.1-2.3,18.5c-0.1,0.9,0.5,1.7,1.3,2
		c1,0.3,1.7,1.2,1.7,2.3c0,1.2-0.9,2.2-2.1,2.4c-0.9,0.1-1.6,0.8-1.6,1.7c-0.1,1.4-0.2,2.5-0.3,3.4h-2.1l-0.3-3.4
		c-0.1-0.9-0.8-1.6-1.6-1.7c-1.2-0.2-2.1-1.2-2.1-2.4c0-1.1,0.7-2,1.7-2.3c0.8-0.3,1.4-1.1,1.3-2c-0.7-8.4-1.6-14.2-2.3-18.5
		c-0.5-3-0.9-5.4-1-7.6c-0.4-5.9,1.1-7.1,1.8-7.9c0.3,0,0.6,0.1,0.9,0.1h5.4c0.3,0,0.6,0,0.9-0.1C40.2,173.4,41.7,174.6,41.3,180.5z
		 M33.3,155.5h5.4c1.3,0,2.4,1.1,2.4,2.4s-1.1,2.4-2.4,2.4h-5.4c-1.3,0-2.4-1.1-2.4-2.4S31.9,155.5,33.3,155.5z M30.8,151.7v-12.4
		H41v12.4H30.8z M33.3,164h5.4c1.3,0,2.4,1.1,2.4,2.4s-1.1,2.4-2.4,2.4h-5.4c-1.3,0-2.4-1.1-2.4-2.4S31.9,164,33.3,164z M23.8,135.6
		v-3h18.8l7.4,3H23.8z M44.8,147.3v-8h14.5l19.8,8H44.8z M114.8,157.6l-62.1-25.1h124.2L114.8,157.6z M184.7,147.3h-34.3l19.8-8
		h14.5V147.3z M198.7,151.7h-10.2v-12.4h10.2V151.7z M190.9,155.5h5.4c1.3,0,2.4,1.1,2.4,2.4s-1.1,2.4-2.4,2.4h-5.4
		c-1.3,0-2.4-1.1-2.4-2.4C188.5,156.5,189.6,155.5,190.9,155.5L190.9,155.5L190.9,155.5z M190.9,164h5.4c1.3,0,2.4,1.1,2.4,2.4
		s-1.1,2.4-2.4,2.4h-5.4c-1.3,0-2.4-1.1-2.4-2.4C188.5,165.1,189.6,164,190.9,164L190.9,164L190.9,164z M199,180.5
		c-0.1,2.2-0.5,4.6-1,7.6c-0.7,4.2-1.6,10.1-2.3,18.5c-0.1,0.9,0.5,1.7,1.3,2c1,0.3,1.7,1.2,1.7,2.3c0,1.2-0.9,2.2-2.1,2.4
		c-0.9,0.1-1.6,0.8-1.6,1.7l-0.3,3.4h-2.1c-0.1-0.9-0.2-2-0.3-3.4c-0.1-0.9-0.8-1.6-1.6-1.7c-1.3-0.2-2.3-1.4-2.1-2.7
		c0.1-0.9,0.8-1.7,1.7-2c0.8-0.3,1.4-1.1,1.3-2c-0.7-8.4-1.6-14.2-2.3-18.5c-0.5-3-0.9-5.4-1-7.6c-0.4-5.9,1.1-7.1,1.8-7.9
		c0.3,0.1,0.6,0.1,0.9,0.1h5.4c0.3,0,0.6,0,0.9-0.1C197.9,173.4,199.3,174.6,199,180.5L199,180.5z M205.7,135.6h-26.2l7.4-3h18.8
		V135.6z"/>
	<path id="Form_5_Kopie_2" class="st19" d="M53.5,2C82,2.1,105.1,25.2,105,53.7c0,0,0,0,0,0c0,26.7-20.3,49.7-46.7,51.5
		C55.7,112.6,62,123,62,123s-21.8-10-23.4-19.8c-8.1-2.5-15.5-6.9-21.5-12.9C-3,70.1-3,37.4,17.1,17.1C26.7,7.4,39.8,2,53.5,2
		L53.5,2L53.5,2z"/>
	<path id="Forma_1-2" class="st5" d="M284.2,164.3L135.5,64.6c-1-0.7-1.3-2-0.6-3c0,0,0,0,0,0l8.3-12.5c0.7-1,2-1.3,3.1-0.6
		c0,0,0,0,0,0L295,148.1c1,0.7,1.3,2,0.6,3c0,0,0,0,0,0l-8.3,12.5C286.6,164.7,285.2,164.9,284.2,164.3z M139.8,62.1l145,97.3
		l5.9-8.9l-145-97.3L139.8,62.1z M104.6,131.9l-5.4-3.6c-0.5-0.4-0.9-0.9-1-1.6c-0.1-0.6,0.1-1.3,0.6-1.8l51.4-53.7
		c0.7-0.8,1.9-0.9,2.8-0.3l12.6,8.4c0.6,0.4,0.9,1,1,1.7c0,0.7-0.2,1.4-0.8,1.8l-58.6,48.9C106.5,132.4,105.4,132.5,104.6,131.9
		L104.6,131.9z M103.9,126.1l1.8,1.2l55.1-46l-8.6-5.7L103.9,126.1z M236.2,220.2l-5.4-3.6c-0.8-0.5-1.2-1.5-0.9-2.5l22.6-72.9
		c0.2-0.7,0.7-1.2,1.4-1.4c0.7-0.2,1.4-0.1,2,0.3l12.6,8.4c0.9,0.6,1.2,1.7,0.8,2.7l-29.8,68.1c-0.3,0.6-0.8,1-1.4,1.2
		C237.4,220.7,236.7,220.6,236.2,220.2L236.2,220.2z M234.6,213.9l1.8,1.2l28-64l-8.6-5.7L234.6,213.9z M248.9,158l-97.1-65.4
		c-1-0.6-1.3-2-0.7-3c0.6-1,2-1.3,3-0.7c0,0,0.1,0,0.1,0.1l97.1,65.4c1,0.6,1.3,2,0.7,3C251.3,158.4,250,158.7,248.9,158
		C248.9,158.1,248.9,158.1,248.9,158L248.9,158z"/>
	<path id="UHH_HÄRTER_" class="st11" d="M33.3,44.2c0,2.6,1.5,4.6,5.1,4.6s5.1-1.9,5.1-4.6v-6.3h-3.3v6.2c0,1-0.8,1.8-1.9,1.8
		c-1,0-1.8-0.8-1.8-1.8v-6.2h-3.3L33.3,44.2L33.3,44.2z M52.4,48.6h3.2V37.9h-3.2v3.8h-3.8v-3.8h-3.2v10.7h3.2v-4.1h3.8V48.6z
		 M64.4,48.6h3.2V37.9h-3.2v3.8h-3.8v-3.8h-3.2v10.7h3.2v-4.1h3.8V48.6z M69.5,44.7H72l0.4-6.7H69L69.5,44.7z M69.1,47.1
		c0,0.9,0.8,1.7,1.7,1.7c0.9,0,1.7-0.8,1.7-1.7c0-0.9-0.8-1.7-1.7-1.7l0,0C69.8,45.4,69.1,46.2,69.1,47.1L69.1,47.1z M26.4,67.8h3.2
		V57.1h-3.2v3.8h-3.8v-3.8h-3.2v10.7h3.2v-4.1h3.8V67.8z M34.5,56.7c0.8,0,1.4-0.6,1.4-1.4c0-0.8-0.6-1.4-1.4-1.4
		c-0.8,0-1.4,0.6-1.4,1.4C33,56,33.7,56.7,34.5,56.7C34.4,56.7,34.5,56.7,34.5,56.7L34.5,56.7z M37.9,56.7c0.8,0,1.4-0.6,1.4-1.4
		c0-0.8-0.6-1.4-1.4-1.4c-0.8,0-1.4,0.6-1.4,1.4c0,0,0,0,0,0C36.5,56,37.1,56.7,37.9,56.7L37.9,56.7z M38.7,67.8h3.5l-3.9-10.7h-4.1
		l-3.9,10.7h3.5l0.4-1.4h4.1L38.7,67.8z M36.2,60l1.2,3.8H35L36.2,60z M48.6,67.8h3.7L50.4,64c1.2-0.6,2-1.9,1.9-3.2
		c0.1-2-1.5-3.6-3.4-3.7c-0.1,0-0.3,0-0.4,0h-5.7v10.7H46v-3.4h1.2L48.6,67.8z M49,60.8c0,0.5-0.5,1-1,0.9c0,0,0,0,0,0h-2v-1.9h2
		C48.5,59.8,48.9,60.2,49,60.8C49,60.7,49,60.7,49,60.8L49,60.8z M55.7,67.8H59V60h2.9v-2.8h-8.9V60h2.9L55.7,67.8L55.7,67.8z
		 M62.9,67.8H71v-2.7h-4.9v-1.4h4.8v-2.7h-4.8v-1.3H71v-2.7h-8.1V67.8z M78.4,67.8H82L80.1,64c1.2-0.6,2-1.9,1.9-3.2
		c0.1-2-1.5-3.6-3.4-3.7c-0.1,0-0.3,0-0.4,0h-5.7v10.7h3.2v-3.4h1.2L78.4,67.8z M78.7,60.8c0,0.5-0.5,1-1,0.9c0,0,0,0,0,0h-2v-1.9h2
		C78.2,59.8,78.7,60.2,78.7,60.8C78.7,60.7,78.7,60.7,78.7,60.8L78.7,60.8z M83.4,63.9H86l0.4-6.7H83L83.4,63.9z M83,66.3
		c0,0.9,0.8,1.7,1.7,1.7c0.9,0,1.7-0.8,1.7-1.7c0-0.9-0.8-1.7-1.7-1.7C83.8,64.6,83,65.4,83,66.3L83,66.3z"/>
</g>
</svg>
