<?xml version="1.0" encoding="utf-8"?>
<!-- Generator: Adobe Illustrator 20.0.0, SVG Export Plug-In . SVG Version: 6.00 Build 0)  -->
<svg version="1.1" id="Ebene_1" xmlns="http://www.w3.org/2000/svg" xmlns:xlink="http://www.w3.org/1999/xlink" x="0px" y="0px"
	 viewBox="0 0 194 245.2" style="enable-background:new 0 0 194 245.2;" xml:space="preserve">
<style type="text/css">
	.st0{fill:#4AB6A1;}
	.st1{fill:#EF847A;}
	.st2{fill:#F4F4F4;}
	.st3{fill:#F4F4F4;stroke:#4AB6A1;stroke-width:1.8018;stroke-miterlimit:10;}
	.st4{fill:#663E7F;}
	.st5{fill:#09D0AD;}
	.st6{fill:#FFFFFF;}
	.st7{fill:#311A42;}
	.st8{fill:#E77AAD;}
	.st9{fill:#D4E1F2;}
	.st10{fill:#00A3A5;}
	.st11{fill:#FF75C3;}
	.st12{fill:#08D0AC;}
	.st13{fill:#663D7E;}
	.st14{fill:#471E5F;}
	.st15{fill:#DEBAD2;}
	.st16{fill:#D5E2F3;}
	.st17{fill:#5B5B5B;}
	.st18{fill-rule:evenodd;clip-rule:evenodd;fill:#FF75C3;}
	.st19{fill:none;stroke:#FF75C3;stroke-width:4;}
	.st20{fill:#3D1800;}
	.st21{fill:#BBD1D4;}
	.st22{fill:#F5D2CD;}
	.st23{fill:#5C5C5C;}
	.st24{fill:#C7CAC7;}
	.st25{fill:#232323;}
	.st26{fill:#FF8879;}
	.st27{fill:#AAAAAA;}
	.st28{fill:#FCEAEA;}
	.st29{fill:#F5D3CD;}
	.st30{fill:#FF8779;}
	.st31{fill:#D4E1F3;}
	.st32{fill:#EBEBEB;}
	.st33{fill:#FFE65D;}
	.st34{fill:#FFC4BD;}
</style>
<g>
	<path class="st17" d="M97,61.2c50.6,0,92,42.3,92,92.6c0,50.3-41.3,91.4-92,91.4c-50.7,0-92-41.6-92-91.9C5,103,46.3,61.2,97,61.2
		L97,61.2z M97,61.2"/>
	<path class="st16" d="M97,82.9c38.7,0,70.2,32.3,70.2,70.8c0,38.5-31.5,69.8-70.2,69.8c-38.7,0-70.2-31.7-70.2-70.2
		C26.7,114.9,58.3,82.9,97,82.9L97,82.9z M97,82.9"/>
	<path class="st17" d="M66.4,30.6C66.4,13.7,80.1,0,97,0c16.9,0,30.6,13.7,30.6,30.6c0,14.3-9.8,26.2-23.1,29.6V69H89.4v-8.8
		C76.2,56.8,66.4,44.9,66.4,30.6L66.4,30.6z M89.4,52.4V38.2h15.1v14.1c9-3.1,15.6-11.6,15.6-21.6c0-12.7-10.4-23-23.1-23
		c-12.8,0-23.1,10.3-23.1,23C73.9,40.8,80.4,49.2,89.4,52.4L89.4,52.4z M89.4,52.4"/>
	<path class="st11" d="M191.3,69.2c-2-2-4.6-2.8-7.2-2.7c0.2-2.6-0.7-5.3-2.7-7.2c-3.7-3.7-9.9-3.6-13.8,0.3
		c-1.1,1.1-1.9,2.2-2.5,3.5c0,0-0.6,1.2-0.8,1.9c-3.3,9,0.6,20.8,0.6,20.8s11.8,3.9,20.8,0.6c0,0,1.2-0.4,1.9-0.8
		c1.3-0.7,2.5-1.5,3.5-2.5C194.9,79.1,195,72.9,191.3,69.2z"/>
	<path class="st5" d="M12.6,59.3c-2,2-2.8,4.6-2.7,7.2c-2.6-0.2-5.3,0.7-7.2,2.7C-1,72.9-0.9,79.1,3,83c1.1,1.1,2.2,1.9,3.5,2.5
		c0,0,1.2,0.6,1.9,0.8c9,3.3,20.8-0.6,20.8-0.6S33.1,74,29.8,65c0,0-0.4-1.2-0.8-1.9c-0.7-1.3-1.5-2.5-2.5-3.5
		C22.5,55.7,16.3,55.5,12.6,59.3z"/>
	<path class="st4" d="M106.8,155.3l-13.9,11.5l-5.7-6.8l13.9-11.5L106.8,155.3z"/>
	<path class="st5" d="M57.9,110.5c-3.3,2.7-3.8,7.7-1,11l31.2,37.6l12.1-10l-31.2-37.6C66.2,108.3,61.2,107.8,57.9,110.5"/>
	<path class="st18" d="M94.3,160.1c1.1,1.3,6.4,6.9,7.7,8s2.1,0.6,2.5,0s0.3-2.2,0.1-3.3c-0.2-1-1.4-4.1-1.5-4.7s0.7-0.9,0.7-0.9
		s2.6-1.8,3.7-2.7s2.1-0.1,4.4-0.2s4.4-2.1,4.9-3c0.5-0.8,9.4-14.3,11.5-17.5c2.1-3.2,1.2-4.5,0.8-4.9c-0.3-0.4-1.1-1.6-5,0
		c-3.5,1.4-18.4,7.7-19.3,8c-0.9,0.3-3.3,2-3.9,4.2c-0.5,2.2,0.1,3.4-1,4.3c-1.1,0.9-3.4,3.1-3.4,3.1s-0.4,0.7-1,0.5
		c-0.6-0.2-3.4-2-4.4-2.3c-1-0.3-2.6-0.8-3.2-0.5c-0.7,0.3-1.3,1-0.4,2.4C90.8,155.9,96.1,162.3,94.3,160.1z"/>
</g>
</svg>
