<?xml version="1.0" encoding="utf-8"?>
<!-- Generator: Adobe Illustrator 20.0.0, SVG Export Plug-In . SVG Version: 6.00 Build 0)  -->
<svg version="1.1" id="Ebene_1" xmlns="http://www.w3.org/2000/svg" xmlns:xlink="http://www.w3.org/1999/xlink" x="0px" y="0px"
	 viewBox="0 0 257.7 291.5" style="enable-background:new 0 0 257.7 291.5;" xml:space="preserve">
<style type="text/css">
	.st0{fill:#4AB6A1;}
	.st1{fill:#EF847A;}
	.st2{fill:#F4F4F4;}
	.st3{fill:#F4F4F4;stroke:#4AB6A1;stroke-width:1.8018;stroke-miterlimit:10;}
	.st4{fill:#663E7F;}
	.st5{fill:#09D0AD;}
	.st6{fill:#FFFFFF;}
	.st7{fill:#311A42;}
	.st8{fill:#E77AAD;}
	.st9{fill:#D4E1F2;}
	.st10{fill:#00A3A5;}
	.st11{fill:#FF75C3;}
	.st12{fill:#08D0AC;}
	.st13{fill:#663D7E;}
	.st14{fill:#471E5F;}
	.st15{fill:#DEBAD2;}
	.st16{fill:#D5E2F3;}
	.st17{fill:#5B5B5B;}
	.st18{fill-rule:evenodd;clip-rule:evenodd;fill:#FF75C3;}
	.st19{fill:none;stroke:#FF75C3;stroke-width:4;}
	.st20{fill:#3D1800;}
	.st21{fill:#BBD1D4;}
	.st22{fill:#F5D2CD;}
	.st23{fill:#5C5C5C;}
	.st24{fill:#C7CAC7;}
	.st25{fill:#232323;}
	.st26{fill:#FF8879;}
	.st27{fill:#AAAAAA;}
	.st28{fill:#FCEAEA;}
	.st29{fill:#F5D3CD;}
	.st30{fill:#FF8779;}
	.st31{fill:#D4E1F3;}
	.st32{fill:#EBEBEB;}
	.st33{fill:#FFE65D;}
	.st34{fill:#FFC4BD;}
</style>
<g>
	<g id="dildo_lang">
		<path id="Form_585" class="st12" d="M219.1,0c-11,0.1-19.9,9-20,20l0.1,149h39.9l-0.1-149C239,9,230.1,0,219.1,0"/>
		<rect id="Rechteck_586" x="197.1" y="169" class="st13" width="44" height="27"/>
		<rect id="Rechteck_588" x="204.1" y="174" class="st14" width="2" height="16"/>
		<rect id="Rechteck_588_Kopie" x="213.1" y="174" class="st14" width="2" height="16"/>
		<rect id="Rechteck_588_Kopie_2" x="222.1" y="174" class="st14" width="2" height="16"/>
		<rect id="Rechteck_588_Kopie_3" x="231.1" y="174" class="st14" width="2" height="16"/>
		<circle class="st6" cx="212.1" cy="14" r="5"/>
	</g>
	<g id="dildo_lang_Kopie">
		<path id="Form_585-2" class="st12" d="M74.1,100c-11,0.1-19.9,9-20,20l0.1,49l39.9,0l-0.1-49C94,109,85.1,100,74.1,100"/>
		<rect id="Rechteck_586-2" x="52.1" y="169" class="st13" width="44" height="27"/>
		<rect id="Rechteck_588-2" x="59.1" y="174" class="st14" width="2" height="16"/>
		<rect id="Rechteck_588_Kopie-2" x="68.1" y="174" class="st14" width="2" height="16"/>
		<rect id="Rechteck_588_Kopie_2-2" x="77.1" y="174" class="st14" width="2" height="16"/>
		<rect id="Rechteck_588_Kopie_3-2" x="86.1" y="174" class="st14" width="2" height="16"/>
		<circle class="st6" cx="67.1" cy="114" r="5"/>
	</g>
	<path id="einfacher_pfeilv" class="st6" d="M220,250.7v-34.3l5.9,5.8c0.5,0.5,1.4,0.5,1.9,0c0.5-0.5,0.5-1.3,0-1.8c0,0,0,0,0,0
		l-8.2-8c-0.5-0.5-1.4-0.5-1.9,0l-8.2,8c-0.5,0.5-0.5,1.3,0,1.8c0,0,0,0,0,0c0.5,0.5,1.4,0.5,1.9,0l5.9-5.8v34.3
		c0,0.7,0.6,1.3,1.3,1.3C219.4,252,219.9,251.4,220,250.7z"/>
	<path id="einfacher_pfeilv_Kopie" class="st6" d="M74,250.7v-34.3l5.9,5.8c0.5,0.5,1.4,0.5,1.9,0c0.5-0.5,0.5-1.3,0-1.8
		c0,0,0,0,0,0l-8.2-8c-0.5-0.5-1.4-0.5-1.9,0l-8.2,8c-0.5,0.5-0.5,1.3,0,1.8c0,0,0,0,0,0c0.5,0.5,1.4,0.5,1.9,0l5.9-5.8v34.3
		c0,0.7,0.6,1.3,1.3,1.3C73.4,252,73.9,251.4,74,250.7z"/>
	<path id="NO_SEX" class="st6" d="M17.9,291h7.8v-26.7h-8.1v13.4l-9.3-13.4H0V291h8.1v-14.3L17.9,291z M28.6,277.7
		c0,8.2,6.4,13.8,14.6,13.8s14.6-5.6,14.6-13.8s-6.4-13.8-14.6-13.8S28.6,269.5,28.6,277.7z M49.6,277.7c0,3.7-2.5,6.7-6.4,6.7
		s-6.4-3-6.4-6.7s2.5-6.7,6.4-6.7S49.6,274,49.6,277.7z M68.8,287.2c2.8,2.6,6.7,4.2,12.4,4.2c7.2,0,11.5-3.4,11.5-9.3
		c0-6.2-6.5-7.4-10.9-8.2c-2.8-0.5-3.9-0.8-3.9-1.9c0-0.7,0.4-1.4,2.4-1.4c2.7,0.1,5.3,1,7.4,2.6l4.3-5.7c-3.2-2.5-7.2-3.8-11.3-3.7
		c-7.3,0-11.1,4.1-11.1,8.6c0,6.7,6.7,7.7,11.1,8.5c2.6,0.5,3.8,1,3.8,2s-1.4,1.6-3,1.6c-3.2,0-6.3-1.2-8.6-3.4L68.8,287.2z
		 M95.4,291h20.2v-6.7h-12.2v-3.4h11.9v-6.7h-11.9V271h12.2v-6.7H95.4V291L95.4,291z M135.6,291h9.5l-8.9-13.7l8.3-13H135l-4.2,7.6
		l-4.3-7.6h-9.5l8.3,13l-8.9,13.7h9.5l4.9-8.2L135.6,291z"/>
	<path id="SEX" class="st6" d="M181.4,287.2c2.8,2.6,6.7,4.2,12.4,4.2c7.2,0,11.5-3.4,11.5-9.3c0-6.2-6.5-7.4-10.9-8.2
		c-2.8-0.5-3.9-0.8-3.9-1.9c0-0.7,0.4-1.4,2.4-1.4c2.7,0.1,5.3,1,7.4,2.6l4.3-5.7c-3.2-2.5-7.2-3.8-11.3-3.7
		c-7.3,0-11.1,4.1-11.1,8.6c0,6.7,6.7,7.7,11.1,8.5c2.6,0.5,3.8,1,3.8,2s-1.4,1.6-3,1.6c-3.2,0-6.3-1.2-8.6-3.4L181.4,287.2z
		 M207.9,291h20.2v-6.7H216v-3.4h11.9v-6.7H216V271h12.2v-6.7h-20.2L207.9,291L207.9,291z M248.2,291h9.5l-8.9-13.7l8.3-13h-9.6
		l-4.2,7.6l-4.3-7.6h-9.5l8.3,13l-8.9,13.7h9.5l4.9-8.2L248.2,291z"/>
</g>
</svg>
