<?xml version="1.0" encoding="utf-8"?>
<!-- Generator: Adobe Illustrator 20.0.0, SVG Export Plug-In . SVG Version: 6.00 Build 0)  -->
<svg version="1.1" id="Ebene_1" xmlns="http://www.w3.org/2000/svg" xmlns:xlink="http://www.w3.org/1999/xlink" x="0px" y="0px"
	 viewBox="0 0 337.4 362.4" style="enable-background:new 0 0 337.4 362.4;" xml:space="preserve">
<style type="text/css">
	.st0{fill:#4AB6A1;}
	.st1{fill:#EF847A;}
	.st2{fill:#F4F4F4;}
	.st3{fill:#F4F4F4;stroke:#4AB6A1;stroke-width:1.8018;stroke-miterlimit:10;}
	.st4{fill:#663E7F;}
	.st5{fill:#09D0AD;}
	.st6{fill:#FFFFFF;}
	.st7{fill:#311A42;}
	.st8{fill:#E77AAD;}
	.st9{fill:#D4E1F2;}
	.st10{fill:#00A3A5;}
	.st11{fill:#FF75C3;}
	.st12{fill:#08D0AC;}
	.st13{fill:#663D7E;}
	.st14{fill:#471E5F;}
	.st15{fill:#DEBAD2;}
	.st16{fill:#D5E2F3;}
	.st17{fill:#5B5B5B;}
	.st18{fill-rule:evenodd;clip-rule:evenodd;fill:#FF75C3;}
	.st19{fill:none;stroke:#FF75C3;stroke-width:4;}
	.st20{fill:#3D1800;}
	.st21{fill:#BBD1D4;}
	.st22{fill:#F5D2CD;}
	.st23{fill:#5C5C5C;}
	.st24{fill:#C7CAC7;}
	.st25{fill:#232323;}
	.st26{fill:#FF8879;}
	.st27{fill:#AAAAAA;}
	.st28{fill:#FCEAEA;}
	.st29{fill:#F5D3CD;}
	.st30{fill:#FF8779;}
	.st31{fill:#D4E1F3;}
	.st32{fill:#EBEBEB;}
	.st33{fill:#FFE65D;}
	.st34{fill:#FFC4BD;}
</style>
<g>
	<path class="st26" d="M287.5,25v25h-43.8V25h-150v25H50V25H0v68.7h337.4V25H287.5z M287.5,25"/>
	<path class="st28" d="M50,93.7H0v268.7h337.4V93.7H50z M50,93.7"/>
	<path class="st29" d="M231.2,137.5H50v181.2h237.5V137.5H231.2z M175,150h43.8v43.8H175V150z M218.7,250H175v-43.8h43.8V250z
		 M118.7,206.2h43.8V250h-43.8V206.2z M118.7,150h43.8v43.8h-43.8V150z M62.5,150h43.8v43.8H62.5V150z M62.5,206.2h43.8V250H62.5
		V206.2z M106.2,306.2H62.5v-43.7h43.8V306.2z M162.5,306.2h-43.8v-43.7h43.8V306.2z M218.7,306.2H175v-43.7h43.8V306.2z
		 M274.9,306.2h-43.7v-43.7h43.7V306.2z M274.9,250h-43.7v-43.8h43.7V250z M231.2,193.7V150h43.7v43.8H231.2z M231.2,193.7"/>
	<rect x="50" y="0" class="st17" width="43.8" height="50"/>
	<rect x="243.7" y="0" class="st17" width="43.8" height="50"/>
	<path class="st11" d="M89.4,160.8c-2,0-3.8,0.9-5.1,2.3c-1.3-1.4-3.1-2.3-5.1-2.3c-3.8,0-6.9,3.2-6.9,7.2c0,1.1,0.2,2.1,0.5,3.1
		c0,0,0.3,0.9,0.5,1.4c2.9,6.3,11,10.3,11,10.3s8-4.1,11-10.3c0,0,0.4-0.8,0.5-1.4c0.3-1,0.5-2,0.5-3.1
		C96.4,164.1,93.3,160.8,89.4,160.8z"/>
	<path class="st11" d="M201.9,160.8c-2,0-3.8,0.9-5.1,2.3c-1.3-1.4-3.1-2.3-5.1-2.3c-3.8,0-6.9,3.2-6.9,7.2c0,1.1,0.2,2.1,0.5,3.1
		c0,0,0.3,0.9,0.5,1.4c2.9,6.3,11,10.3,11,10.3s8-4.1,11-10.3c0,0,0.4-0.8,0.5-1.4c0.3-1,0.5-2,0.5-3.1
		C208.8,164.1,205.7,160.8,201.9,160.8z"/>
	<path class="st11" d="M260.8,160.8c-2,0-3.8,0.9-5.1,2.3c-1.3-1.4-3.1-2.3-5.1-2.3c-3.8,0-6.9,3.2-6.9,7.2c0,1.1,0.2,2.1,0.5,3.1
		c0,0,0.3,0.9,0.5,1.4c2.9,6.3,11,10.3,11,10.3s8-4.1,11-10.3c0,0,0.4-0.8,0.5-1.4c0.3-1,0.5-2,0.5-3.1
		C267.7,164.1,264.6,160.8,260.8,160.8z"/>
	<path class="st11" d="M89.4,218.7c-2,0-3.8,0.9-5.1,2.3c-1.3-1.4-3.1-2.3-5.1-2.3c-3.8,0-6.9,3.2-6.9,7.2c0,1.1,0.2,2.1,0.5,3.1
		c0,0,0.3,0.9,0.5,1.4c2.9,6.3,11,10.3,11,10.3s8-4.1,11-10.3c0,0,0.4-0.8,0.5-1.4c0.3-1,0.5-2,0.5-3.1
		C96.4,221.9,93.3,218.7,89.4,218.7z"/>
	<path class="st11" d="M147.3,218.7c-2,0-3.8,0.9-5.1,2.3c-1.3-1.4-3.1-2.3-5.1-2.3c-3.8,0-6.9,3.2-6.9,7.2c0,1.1,0.2,2.1,0.5,3.1
		c0,0,0.3,0.9,0.5,1.4c2.9,6.3,11,10.3,11,10.3s8-4.1,11-10.3c0,0,0.4-0.8,0.5-1.4c0.3-1,0.5-2,0.5-3.1
		C154.2,221.9,151.1,218.7,147.3,218.7z"/>
	<path class="st11" d="M260.8,218.7c-2,0-3.8,0.9-5.1,2.3c-1.3-1.4-3.1-2.3-5.1-2.3c-3.8,0-6.9,3.2-6.9,7.2c0,1.1,0.2,2.1,0.5,3.1
		c0,0,0.3,0.9,0.5,1.4c2.9,6.3,11,10.3,11,10.3s8-4.1,11-10.3c0,0,0.4-0.8,0.5-1.4c0.3-1,0.5-2,0.5-3.1
		C267.7,221.9,264.6,218.7,260.8,218.7z"/>
	<path class="st11" d="M89.4,273.3c-2,0-3.8,0.9-5.1,2.3c-1.3-1.4-3.1-2.3-5.1-2.3c-3.8,0-6.9,3.2-6.9,7.2c0,1.1,0.2,2.1,0.5,3.1
		c0,0,0.3,0.9,0.5,1.4c2.9,6.3,11,10.3,11,10.3s8-4.1,11-10.3c0,0,0.4-0.8,0.5-1.4c0.3-1,0.5-2,0.5-3.1
		C96.4,276.5,93.3,273.3,89.4,273.3z"/>
	<path class="st11" d="M147.3,273.3c-2,0-3.8,0.9-5.1,2.3c-1.3-1.4-3.1-2.3-5.1-2.3c-3.8,0-6.9,3.2-6.9,7.2c0,1.1,0.2,2.1,0.5,3.1
		c0,0,0.3,0.9,0.5,1.4c2.9,6.3,11,10.3,11,10.3s8-4.1,11-10.3c0,0,0.4-0.8,0.5-1.4c0.3-1,0.5-2,0.5-3.1
		C154.2,276.5,151.1,273.3,147.3,273.3z"/>
	<path class="st11" d="M201.9,273.3c-2,0-3.8,0.9-5.1,2.3c-1.3-1.4-3.1-2.3-5.1-2.3c-3.8,0-6.9,3.2-6.9,7.2c0,1.1,0.2,2.1,0.5,3.1
		c0,0,0.3,0.9,0.5,1.4c2.9,6.3,11,10.3,11,10.3s8-4.1,11-10.3c0,0,0.4-0.8,0.5-1.4c0.3-1,0.5-2,0.5-3.1
		C208.8,276.5,205.7,273.3,201.9,273.3z"/>
	<path class="st11" d="M260.8,273.3c-2,0-3.8,0.9-5.1,2.3c-1.3-1.4-3.1-2.3-5.1-2.3c-3.8,0-6.9,3.2-6.9,7.2c0,1.1,0.2,2.1,0.5,3.1
		c0,0,0.3,0.9,0.5,1.4c2.9,6.3,11,10.3,11,10.3s8-4.1,11-10.3c0,0,0.4-0.8,0.5-1.4c0.3-1,0.5-2,0.5-3.1
		C267.7,276.5,264.6,273.3,260.8,273.3z"/>
	<path class="st8" d="M215.6,233c-0.8-2.5-3.3-4-6.2-4.3l-1.2-3.6c-0.2-0.7-1-1.1-1.7-0.9l-2.2,0.7c-0.7-3.2-3.9-4.5-7.7-4.5
		c-3.7,0-6.8,1.2-7.6,4.3l-1.6-0.5c-0.7-0.2-1.5,0.1-1.7,0.9l-1.2,3.6c-3,0.2-5.4,1.8-6.2,4.3c-1.2,3.6,1.5,7.7,6.1,9.2
		c4.6,1.5,9.2-0.2,10.4-3.7c0.8-2.5-0.3-5.3-2.6-7.2l1.2-3.6c0.2-0.7-0.2-1.5-0.9-1.7l-2.3-0.8c0.6-2.7,3.3-3.5,6.5-3.5
		c3.3,0,6,0.9,6.5,3.7l-1.7,0.6c-0.7,0.2-1.1,1-0.9,1.7l1.2,3.6c-2.3,2-3.4,4.7-2.6,7.2c1.2,3.6,5.8,5.2,10.4,3.7
		C214,240.7,216.7,236.6,215.6,233z M188.1,227.6c0.1-0.4,0.6-0.7,1-0.5c0.1,0,0.2,0.1,0.3,0.2l0,0l0,0c0.2,0.2,0.3,0.6,0.2,0.9
		c-0.1,0.3-0.3,0.5-0.6,0.5c0,0,0,0.1,0,0.1c-0.1,0.4-0.4,0.7-0.7,0.6l0,0l0,0c-0.2-0.1-0.3-0.5-0.2-0.9c0,0,0-0.1,0-0.1
		C188.1,228.2,188,227.9,188.1,227.6z M192.2,237.6c-0.8,2.5-4.1,3.7-7.3,2.6c-3.2-1.1-5.1-4-4.3-6.5c0.8-2.5,4.1-3.7,7.3-2.6
		C191.1,232.2,193,235.1,192.2,237.6z M204.2,227.3L204.2,227.3L204.2,227.3c0.1-0.1,0.2-0.1,0.3-0.2c0.4-0.1,0.9,0.1,1,0.5
		c0.1,0.3,0,0.6-0.2,0.8c0,0,0,0.1,0,0.1c0.1,0.4,0.1,0.8-0.2,0.9l0,0l0,0c-0.2,0.1-0.5-0.2-0.7-0.6c0,0,0-0.1,0-0.1
		c-0.3-0.1-0.5-0.3-0.6-0.5C203.9,227.8,204,227.5,204.2,227.3z M208.8,240.3c-3.2,1.1-6.5-0.1-7.3-2.6c-0.8-2.5,1.1-5.4,4.3-6.5
		c3.2-1.1,6.5,0.1,7.3,2.6C214,236.3,212,239.2,208.8,240.3z"/>
	<g>
		<path class="st5" d="M155.7,156.8c-1.9-1.9-4.9-1.9-6.7,0L127,178.7l6.7,6.7l21.9-21.9C157.5,161.7,157.5,158.6,155.7,156.8z"/>
		
			<rect x="124.2" y="181.4" transform="matrix(0.7071 0.7071 -0.7071 0.7071 167.5191 -37.4455)" class="st17" width="9.5" height="4.1"/>
	</g>
</g>
</svg>
