<?xml version="1.0" encoding="utf-8"?>
<!-- Generator: Adobe Illustrator 19.2.1, SVG Export Plug-In . SVG Version: 6.00 Build 0)  -->
<svg version="1.1" id="Ebene_1" xmlns="http://www.w3.org/2000/svg" xmlns:xlink="http://www.w3.org/1999/xlink" x="0px" y="0px"
	 width="226.8px" height="226.8px" viewBox="0 0 226.8 226.8" style="enable-background:new 0 0 226.8 226.8;" xml:space="preserve"
	>
<path d="M82.4,98.2c4.2,0,7.7-3.4,7.7-7.7V60.7c0-13.3,10.8-24.2,24.2-24.2s24.2,10.8,24.2,24.2v29.8c0,4.2,3.4,7.7,7.6,7.7
	c4.2,0,7.7-3.4,7.7-7.7V60.7c0-21.8-17.7-39.5-39.5-39.5c-21.8,0-39.5,17.7-39.5,39.5v29.8C74.8,94.7,78.2,98.2,82.4,98.2L82.4,98.2
	z M82.4,98.2"/>
<path d="M201.9,81h-40.6v9.5c0,8.4-6.9,15.3-15.3,15.3c-8.4,0-15.3-6.8-15.3-15.3V81H97.7v9.5c0,8.4-6.9,15.3-15.3,15.3
	c-8.4,0-15.3-6.8-15.3-15.3V81h-41c-2.1,0-3.4,1.7-2.9,3.7L50,193.6c1.6,6.1,8.1,11.1,14.4,11.1h99.4c6.3,0,12.8-5,14.4-11.1
	l26.7-108.9C205.3,82.6,204.1,81,201.9,81L201.9,81z M201.9,81"/>
</svg>
