<?xml version="1.0" encoding="utf-8"?>
<!-- Generator: Adobe Illustrator 19.2.1, SVG Export Plug-In . SVG Version: 6.00 Build 0)  -->
<svg version="1.1" id="Ebene_1" xmlns="http://www.w3.org/2000/svg" xmlns:xlink="http://www.w3.org/1999/xlink" x="0px" y="0px"
	 width="226.8px" height="226.8px" viewBox="0 0 226.8 226.8" style="enable-background:new 0 0 226.8 226.8;" xml:space="preserve"
	>
<g>
	<path d="M182.6,102.6V31.8h-48.2v21.4h26.8v18.6L64.3,98.2V80h11.2V58.5H32.7V80h10.2v22.7c-21.2,5.1-36.9,24.2-36.9,46.9
		c0,26.6,21.6,48.2,48.2,48.2s48.2-21.6,48.2-48.2c0-13.9-5.9-26.5-15.4-35.3L161.2,94v8.6c-21.4,4.9-37.5,24.1-37.5,47
		c0,26.6,21.6,48.2,48.2,48.2c26.6,0,48.2-21.6,48.2-48.2C220.1,126.7,204.1,107.5,182.6,102.6L182.6,102.6z M54.1,176.4
		c-14.8,0-26.8-12-26.8-26.8c0-10.7,6.4-20,15.5-24.3v27h21.4v-27.4c9.7,4,16.6,13.6,16.6,24.8C80.9,164.3,68.9,176.4,54.1,176.4
		L54.1,176.4z M171.9,176.4c-14.8,0-26.8-12-26.8-26.8c0-11,6.6-20.4,16.1-24.5v27.2h21.4V125c9.4,4.1,16.1,13.6,16.1,24.5
		C198.7,164.3,186.7,176.4,171.9,176.4L171.9,176.4z M171.9,176.4"/>
</g>
</svg>
