<?xml version="1.0" encoding="utf-8"?>
<!-- Generator: Adobe Illustrator 19.2.1, SVG Export Plug-In . SVG Version: 6.00 Build 0)  -->
<svg version="1.1" id="Ebene_1" xmlns="http://www.w3.org/2000/svg" xmlns:xlink="http://www.w3.org/1999/xlink" x="0px" y="0px"
	 width="226.8px" height="226.8px" viewBox="0 0 226.8 226.8" style="enable-background:new 0 0 226.8 226.8;" xml:space="preserve"
	>
<path d="M80.6,76.5c-2.3-6-8.1-10.2-14.8-10.2H55.1c-6.8,0-12.5,4.2-14.8,10.2l-29.1,43.3c-2.6,3.9-1.6,9.2,2.3,11.8
	c3.9,2.6,9.2,1.6,11.8-2.3l13.9-20.6v6.5l-7.6,29.9c-0.2,0.9,0,1.8,0.5,2.6c0.6,0.7,1.4,1.2,2.4,1.2h4.7v47.9c0,4.7,3.8,8.5,8.5,8.5
	c4.7,0,8.5-3.8,8.5-8.5v-47.9h8.5v47.9c0,4.7,3.8,8.5,8.5,8.5c4.7,0,8.5-3.8,8.5-8.5v-47.9h4.7c0.9,0,1.8-0.4,2.4-1.2
	c0.6-0.7,0.8-1.7,0.5-2.6l-7.6-29.9v-6.5l13.9,20.6c2.6,3.9,7.9,4.9,11.8,2.3c3.9-2.6,4.9-7.9,2.3-11.8L80.6,76.5z M80.6,76.5"/>
<path d="M60.4,58c11.3,0,20.4-9.1,20.4-20.4c0-11.3-9.1-20.4-20.4-20.4C49.2,17.2,40,26.4,40,37.6C40,48.9,49.2,58,60.4,58L60.4,58z
	 M60.4,58"/>
<path d="M30.8,48.6c4.6,0,8.3-3.7,8.3-8.3c0-4.6-3.7-8.3-8.3-8.3c-3.9,0-10,6.3-18.7,2.3c-0.9-0.4-1.9-0.2-2.5,0.5
	c-0.7,0.7-0.8,1.7-0.3,2.5C12.2,42.5,18.6,48.6,30.8,48.6L30.8,48.6z M30.8,48.6"/>
<path d="M216.2,120.4L187.1,77c-2.3-6-8.1-10.2-14.8-10.2h-10.7c-6.8,0-12.5,4.2-14.8,10.2l-29.1,43.3c-2.6,3.9-1.6,9.2,2.3,11.8
	c3.9,2.6,9.2,1.6,11.8-2.3l13.9-20.6v88c0,4.7,3.8,8.5,8.5,8.5c4.7,0,8.5-3.8,8.5-8.5v-47.9h8.5v47.9c0,4.7,3.8,8.5,8.5,8.5
	c4.7,0,8.5-3.8,8.5-8.5v-88l13.9,20.6c2.6,3.9,7.9,4.9,11.8,2.3C217.8,129.6,218.8,124.3,216.2,120.4L216.2,120.4z M216.2,120.4"/>
<path d="M166.9,58.6c11.3,0,20.4-9.1,20.4-20.4c0-11.3-9.1-20.4-20.4-20.4c-11.3,0-20.4,9.1-20.4,20.4
	C146.5,49.5,155.6,58.6,166.9,58.6L166.9,58.6z M166.9,58.6"/>
</svg>
